<svg preserveAspectRatio="none" width="100%" height="100%" overflow="visible" style="display: block;" viewBox="0 0 64.496 55.5264" fill="none" xmlns="http://www.w3.org/2000/svg">
<path id="&#226;&#128;&#156;" d="M37.3735 55.5264V36.3057C37.3735 26.7665 39.5091 18.7223 43.7804 12.1731C48.194 5.48145 55.0992 1.42375 64.496 0V11.1053C58.9434 11.6748 55.0992 13.668 52.9636 17.085C50.9703 20.3597 49.9737 25.2716 49.9737 31.8209L41.4312 30.5395H64.2824V55.5264H37.3735ZM0 55.5264V36.3057C0 26.7665 2.13563 18.7223 6.40689 12.1731C10.8205 5.48145 17.7257 1.42375 27.1225 0V11.1053C21.5699 11.6748 17.7257 13.668 15.5901 17.085C13.5968 20.3597 12.6002 25.2716 12.6002 31.8209L4.0577 30.5395H26.9089V55.5264H0Z" fill="var(--fill-0, white)"/>
</svg>
