<svg preserveAspectRatio="none" width="100%" height="100%" overflow="visible" style="display: block;" viewBox="0 0 32 32" fill="none" xmlns="http://www.w3.org/2000/svg">
<g id="Group">
<path id="Path" fill-rule="evenodd" clip-rule="evenodd" d="M9.99956 4.00066H22.0049C25.3156 4.00066 27.9996 6.68466 27.9996 9.99532V22.0073C27.9996 25.3167 25.3156 28.0007 22.0049 28.0007H9.99422C6.68356 28.0007 3.99956 25.3167 3.99956 22.006V10.0007C3.99956 6.68732 6.68622 4.00066 9.99956 4.00066V4.00066Z" stroke="var(--stroke-0, #A1A4FF)" stroke-width="2.07692" stroke-linecap="round" stroke-linejoin="round"/>
<path id="Path_2" d="M10.8275 14.7997V21.9997" stroke="var(--stroke-0, #A1A4FF)" stroke-width="2.07692" stroke-linecap="round" stroke-linejoin="round"/>
<g id="Group_2">
<path id="Path_3" d="M15.6237 22.0001V17.8001C15.6237 16.1428 16.9664 14.8001 18.6237 14.8001V14.8001C20.281 14.8001 21.6237 16.1428 21.6237 17.8001V22.0001" stroke="var(--stroke-0, #A1A4FF)" stroke-width="2.07692" stroke-linecap="round" stroke-linejoin="round"/>
<path id="Path_4" d="M10.823 10.4511C10.6576 10.4511 10.523 10.5858 10.5243 10.7511C10.5243 10.9165 10.659 11.0511 10.8243 11.0511C10.9896 11.0511 11.1243 10.9165 11.1243 10.7511C11.1243 10.5845 10.9896 10.4511 10.823 10.4511" stroke="var(--stroke-0, #A1A4FF)" stroke-width="2.07692" stroke-linecap="round" stroke-linejoin="round"/>
</g>
<g id="Path_5">
</g>
</g>
</svg>
