<svg preserveAspectRatio="none" width="100%" height="100%" overflow="visible" style="display: block;" viewBox="0 0 32 32" fill="none" xmlns="http://www.w3.org/2000/svg">
<g id="Group">
<path id="Path" fill-rule="evenodd" clip-rule="evenodd" d="M9.99467 4H22.0067C25.316 4 28 6.68267 28 9.99467V22.0067C28 25.316 25.3173 28 22.0053 28H9.99467C6.684 28 4 25.3173 4 22.0053V9.99467C4 6.684 6.68267 4 9.99467 4V4Z" stroke="var(--stroke-0, #A1A4FF)" stroke-width="2.07692" stroke-linecap="round" stroke-linejoin="round"/>
<path id="Path_2" d="M22.5987 8.95067C22.3507 8.952 22.1493 9.15333 22.1493 9.40133C22.1493 9.64933 22.352 9.85067 22.6 9.85067C22.848 9.85067 23.0493 9.64933 23.0493 9.40133C23.0507 9.152 22.848 8.95067 22.5987 8.95067" stroke="var(--stroke-0, #A1A4FF)" stroke-width="2.07692" stroke-linecap="round" stroke-linejoin="round"/>
<path id="Path_3" d="M19.3941 12.6059C21.2687 14.4804 21.2687 17.5196 19.3941 19.3941C17.5196 21.2686 14.4804 21.2686 12.6059 19.3941C10.7314 17.5196 10.7314 14.4804 12.6059 12.6059C14.4804 10.7314 17.5196 10.7314 19.3941 12.6059" stroke="var(--stroke-0, #A1A4FF)" stroke-width="2.07692" stroke-linecap="round" stroke-linejoin="round"/>
<g id="Path_4">
</g>
</g>
</svg>
