<svg width="513" height="342" viewBox="0 0 513 342" fill="none" xmlns="http://www.w3.org/2000/svg">
<g clip-path="url(#clip0_974_7314)">
<path d="M0 0H513V342H0V0Z" fill="#ED2024"/>
<path d="M185.25 69.5395V160.74L225.72 174.99L197.22 202.92L210.9 220.02L241.11 188.67L247.95 201.78L230.85 229.71L251.37 261.63L241.11 276.45L257.07 296.97L272.46 275.88L263.91 261.06L281.01 228L265.62 201.78L272.46 188.67L302.1 220.02L316.35 203.49L286.71 174.42L327.75 159.6V69.5395L298.11 80.3695L297.54 102.03L278.73 103.74V88.9195L288.42 75.8095L320.34 63.2695L307.23 60.9895L315.21 54.1495L320.34 56.4295L315.78 48.4495L307.8 51.2995L302.1 45.0295L270.75 51.2995L278.73 57.5695L257.07 85.4995L235.41 58.1395L242.82 51.8695L214.32 45.0295L206.34 51.2995L197.79 49.0195L193.23 56.9995L198.36 53.5795L207.48 59.8495L194.37 62.6995L225.72 74.0995L234.84 87.2095V103.74L216.03 102.03V81.5095L185.25 69.5395Z" fill="#212121"/>
<path d="M149.34 142.5H185.82V156.75H149.34V142.5ZM149.34 119.13H185.82V134.52H149.34V119.13ZM149.34 95.1898H185.82V110.01H149.34V95.1898ZM149.34 72.3898H185.82V86.6398H149.34V72.3898Z" fill="#212121"/>
<path d="M327.18 142.5H363.66V156.75H327.18V142.5ZM327.18 119.13H363.66V134.52H327.18V119.13ZM327.18 95.1898H363.66V110.01H327.18V95.1898ZM327.18 72.3898H363.66V86.6398H327.18V72.3898Z" fill="#212121"/>
<path d="M304.38 205.771H340.86V216.601H304.38V205.771ZM172.14 205.771H208.62V216.601H172.14V205.771Z" fill="#212121"/>
</g>
<defs>
<clipPath id="clip0_974_7314">
<rect width="513" height="342" fill="white"/>
</clipPath>
</defs>
</svg>
