<svg width="513" height="342" viewBox="0 0 513 342" fill="none" xmlns="http://www.w3.org/2000/svg">
<g clip-path="url(#clip0_974_7178)">
<path d="M0 0H513V342H0V0Z" fill="#C8102E"/>
<path d="M0 0.100098H256.5V171.1H0V0.100098Z" fill="#012169"/>
<path d="M256 0H233.4L160 48.9V0H96V48.9L22.6 0H0V22.7L46.1 53.4H0V117.4H46.1L0 148.1V170.7H22.6L96 121.8V170.7H160V121.8L233.4 170.7H256V148.1L209.9 117.4H256V53.4H209.9L256 22.7V0Z" fill="white"/>
<path d="M144 0H112V69.4H0V101.4H112V170.7H144V101.4H256V69.4H144V0Z" fill="#C8102E"/>
<path d="M0 170.7V159.7L62.5 117.4H85.1L7.3 170.7H0ZM7.3 0.100098L85.1 53.3001H62.5L0 11.1001V0.100098H7.3ZM256 0.100098V11.1001L193.5 53.4001H170.9L248.7 0.100098H256ZM248.7 170.7L170.9 117.4H193.5L256 159.7V170.7H248.7Z" fill="#C8102E"/>
<path d="M316.9 99.9399V199.63C316.9 259.44 396.65 299.32 396.65 299.32C396.65 299.32 476.4 259.44 476.4 199.63V99.9399H316.9Z" fill="white"/>
<path d="M449.37 259.44H343.93C367.06 284.52 396.65 299.32 396.65 299.32C396.65 299.32 426.24 284.52 449.37 259.44Z" fill="#2F8F22"/>
<path d="M396.65 259.44C418.675 259.44 436.53 241.585 436.53 219.56C436.53 197.535 418.675 179.68 396.65 179.68C374.625 179.68 356.77 197.535 356.77 219.56C356.77 241.585 374.625 259.44 396.65 259.44Z" fill="#65B5D2"/>
<path d="M356.77 219.57C367.783 219.57 376.71 210.643 376.71 199.63C376.71 188.617 367.783 179.69 356.77 179.69C345.758 179.69 336.83 188.617 336.83 199.63C336.83 210.643 345.758 219.57 356.77 219.57Z" fill="#C8102E"/>
<path d="M436.52 219.57C447.533 219.57 456.46 210.643 456.46 199.63C456.46 188.617 447.533 179.69 436.52 179.69C425.508 179.69 416.58 188.617 416.58 199.63C416.58 210.643 425.508 219.57 436.52 219.57Z" fill="#C8102E"/>
<path d="M396.65 179.69C407.663 179.69 416.59 170.763 416.59 159.75C416.59 148.738 407.663 139.81 396.65 139.81C385.637 139.81 376.71 148.738 376.71 159.75C376.71 170.763 385.637 179.69 396.65 179.69Z" fill="#C8102E"/>
</g>
<defs>
<clipPath id="clip0_974_7178">
<rect width="513" height="342" fill="white"/>
</clipPath>
</defs>
</svg>
