<svg width="513" height="342" viewBox="0 0 513 342" fill="none" xmlns="http://www.w3.org/2000/svg">
<g clip-path="url(#clip0_974_7159)">
<path d="M0 0H513V341.967H0V0Z" fill="white"/>
<path d="M0 341.967H513V0L0 341.967Z" fill="#012A87"/>
<path d="M250.889 0H0V167.226L250.889 0Z" fill="#F9D90F"/>
<path d="M140.674 118.531L152.898 139.772H177.446L165.122 160.914L177.446 182.155H152.898L140.674 203.396L128.45 182.155H103.902L116.226 160.914L103.902 139.772H128.45L140.674 118.531Z" fill="#DC171D"/>
<path fill-rule="evenodd" clip-rule="evenodd" d="M140.674 107.601C111.23 107.601 87.3613 131.47 87.3613 160.914C87.3613 190.358 111.23 214.226 140.674 214.226C170.118 214.226 193.987 190.358 193.987 160.914C193.987 131.47 170.118 107.601 140.674 107.601ZM78.3613 160.914C78.3613 126.499 106.26 98.6011 140.674 98.6011C175.088 98.6011 202.987 126.499 202.987 160.914C202.987 195.328 175.088 223.226 140.674 223.226C106.26 223.226 78.3613 195.328 78.3613 160.914Z" fill="black"/>
</g>
<defs>
<clipPath id="clip0_974_7159">
<rect width="513" height="341.967" fill="white"/>
</clipPath>
</defs>
</svg>
