<svg width="513" height="342" viewBox="0 0 513 342" fill="none" xmlns="http://www.w3.org/2000/svg">
<g clip-path="url(#clip0_974_7145)">
<path d="M0 0H513V341.967H0V0Z" fill="#FF7415"/>
<path d="M513 0H0V341.967" fill="#FFDA44"/>
<path fill-rule="evenodd" clip-rule="evenodd" d="M341.532 65.8579C338.921 65.1879 336.748 65.2996 333.768 67.2762C329.728 69.9716 328.917 71.8493 328.705 72.4283C328.438 73.1589 328.069 74.8396 328.895 78.4596C330.849 87.0212 337.026 97.485 346.038 112.437C346.195 112.698 346.353 112.96 346.513 113.225C354.236 126.033 364.448 142.97 367.659 159.953C369.428 169.303 369.359 179.791 365.081 190.258C360.791 200.754 353.083 209.237 343.001 215.955C342.999 215.957 342.997 215.958 342.995 215.96C342.992 215.961 342.99 215.963 342.988 215.964C332.76 222.786 321.901 226.754 310.53 226.895C299.142 227.036 289.274 223.312 281.095 218.194C266.342 208.963 254.389 193.23 245.372 181.36C245.139 181.053 244.908 180.749 244.679 180.447C234.116 166.551 226.712 157.067 219.415 152.2C216.364 150.165 214.49 149.795 213.333 149.776C212.244 149.759 209.674 150.011 205.116 153.044C205.115 153.045 205.113 153.046 205.112 153.046C199.222 156.976 196.886 160.24 195.883 162.329C194.928 164.316 194.474 166.689 194.898 170.189C195.921 178.634 201.213 189.085 209.705 203.819C210.362 204.958 211.046 206.135 211.75 207.346C218.823 219.518 227.89 235.121 231.198 250.272C233.175 259.327 233.527 269.725 229.557 280.224C225.549 290.827 217.978 299.306 208.045 305.927C194.404 315.044 179.856 316.196 166.932 312.85C154.821 309.715 144.594 302.82 136.981 296.39C129.19 289.81 122.85 282.615 118.549 277.246C116.365 274.52 114.627 272.165 113.408 270.452C112.798 269.594 112.313 268.89 111.965 268.375C111.79 268.118 111.649 267.907 111.543 267.746C111.49 267.666 111.446 267.599 111.41 267.544L111.363 267.472L111.345 267.444L111.337 267.432C111.333 267.426 111.329 267.421 128.952 255.999C146.574 244.577 146.571 244.572 146.567 244.567L146.563 244.561C146.592 244.604 146.652 244.694 146.742 244.827C146.923 245.094 147.224 245.532 147.635 246.111C148.461 247.272 149.715 248.975 151.325 250.984C154.61 255.083 159.06 260.062 164.081 264.303C169.281 268.694 173.889 271.267 177.456 272.19C180.205 272.902 182.172 272.702 184.709 271.006L184.725 270.995L184.741 270.984C189.051 268.114 190.005 266.076 190.271 265.372C190.579 264.556 190.954 262.845 190.165 259.231C188.331 250.831 182.571 240.843 174.174 226.279C173.891 225.789 173.606 225.293 173.317 224.792C165.69 211.559 155.433 193.66 153.203 175.237C152 165.303 152.994 154.613 158.026 144.139C163.009 133.769 171.196 125.179 181.829 118.091L181.843 118.082C191.886 111.398 202.666 107.602 213.999 107.781C225.263 107.96 234.884 112.032 242.721 117.259C256.397 126.382 267.819 141.45 276.597 153.029C277.112 153.709 277.619 154.377 278.116 155.031C288.547 168.754 296.055 178.011 303.373 182.59C306.42 184.497 308.469 184.917 310.01 184.898C311.564 184.879 314.643 184.386 319.691 181.018L319.698 181.014L319.704 181.009C324.395 177.884 325.74 175.5 326.203 174.368C326.679 173.202 327.06 171.296 326.391 167.758C324.794 159.313 318.938 148.837 310.066 134.118C309.607 133.355 309.136 132.577 308.656 131.783C301.171 119.406 291.517 103.443 287.948 87.8049C285.898 78.8238 285.432 68.4709 289.261 58.0011C293.146 47.3802 300.625 38.8932 310.479 32.3239L310.504 32.3078C324.248 23.1722 338.843 21.8076 351.97 25.1755C364.247 28.3253 374.485 35.3619 382.05 41.9212C389.786 48.6282 396.011 55.9663 400.212 61.4334C402.346 64.2106 404.039 66.6112 405.224 68.3586C405.818 69.2346 406.288 69.9528 406.628 70.4795C406.797 70.7431 406.935 70.9593 407.038 71.124C407.09 71.2063 407.133 71.2758 407.168 71.332L407.214 71.4062L407.24 71.4485C407.244 71.4544 407.247 71.46 389.359 82.4606C371.471 93.4612 371.474 93.4665 371.477 93.4715L371.483 93.4806L371.485 93.4836C371.458 93.4419 371.402 93.3525 371.316 93.2193C371.144 92.9526 370.857 92.5129 370.462 91.931C369.67 90.7625 368.463 89.0473 366.909 87.0245C363.733 82.8916 359.425 77.8932 354.536 73.6539C349.476 69.2668 344.999 66.7473 341.532 65.8579Z" fill="white"/>
</g>
<defs>
<clipPath id="clip0_974_7145">
<rect width="513" height="341.967" fill="white"/>
</clipPath>
</defs>
</svg>
