<svg width="513" height="342" viewBox="0 0 513 342" fill="none" xmlns="http://www.w3.org/2000/svg">
<g clip-path="url(#clip0_974_7025)">
<path d="M0 0H513V341.967H0V0Z" fill="#0021AD"/>
<path d="M0 0H513V341.967" fill="#1C8A42"/>
<path d="M77.7517 272.531L83.4628 284.454L96.2878 281.449L90.5767 293.372L100.897 301.488L88.0718 304.393V317.619L77.7517 309.303L67.5317 317.619V304.393L54.7067 301.488L65.0269 293.372L59.2155 281.449L72.1407 284.454L77.7517 272.531ZM40.5792 173.438L46.2903 185.361L59.1153 182.355L53.4042 194.179L63.7243 202.395L50.7991 205.3L50.8993 218.526L40.5792 210.21L30.2591 218.526L30.3593 205.3L17.4341 202.395L27.8544 194.179L22.0431 182.355L34.8681 185.361L40.5792 173.438ZM77.7517 92.3801L83.4628 104.203L96.2878 101.297L90.5767 113.121L100.897 121.337L88.0718 124.242V137.368L77.7517 129.152L67.5317 137.368V124.242L54.7067 121.337L65.0269 113.121L59.2155 101.297L72.1407 104.203L77.7517 92.3801ZM123.942 155.403L129.653 167.326L142.478 164.32L136.767 176.244L147.087 184.359L134.262 187.265V200.491L123.942 192.275L113.722 200.491V187.265L100.897 184.359L111.217 176.244L105.506 164.32L118.331 167.326L123.942 155.403ZM90.9774 209.508L95.386 223.235H109.914L98.1915 231.752L102.7 245.479L90.9774 237.062L79.2546 245.479L83.7634 231.752L72.0405 223.235H86.4686L90.9774 209.508Z" fill="white"/>
<path d="M267.622 245.679C308.847 245.679 342.267 212.259 342.267 171.033C342.267 129.808 308.847 96.3879 267.622 96.3879C226.396 96.3879 192.976 129.808 192.976 171.033C192.976 212.259 226.396 245.679 267.622 245.679Z" fill="#FFC639"/>
<path d="M267.622 220.73H292.47C292.47 220.73 303.291 201.693 292.47 183.458L317.319 158.609L304.894 133.761H292.47C292.47 133.761 286.258 152.397 261.41 152.397C236.561 152.397 230.349 133.761 230.349 133.761H217.925L230.349 158.609L217.925 183.458L230.349 195.882C230.349 195.882 242.773 171.033 267.622 183.458C267.622 183.458 278.142 198.988 267.622 220.73Z" fill="#1C8A42"/>
<path d="M465.307 92.3801C465.908 89.4744 465.107 74.7457 465.107 71.6397C465.107 50.2981 451.179 32.1627 431.842 25.8504C437.753 37.8738 441.06 51.3 441.06 65.6279C441.06 70.4373 440.659 75.1465 439.958 79.7555C437.052 75.0463 433.345 70.8381 428.736 67.1309C411.602 53.5043 388.056 53.1035 370.723 64.626C384.149 67.5317 397.074 73.5434 408.496 82.6612C417.514 89.775 424.728 99.494 430.239 108.812C430.239 108.812 412.404 119.733 399.178 123.942C385.952 128.15 356.795 131.857 356.795 131.857C428.936 143.88 489.053 95.7867 489.053 95.7867C482.541 82.3606 473.222 91.7789 465.307 92.3801Z" fill="#FFC639"/>
</g>
<defs>
<clipPath id="clip0_974_7025">
<rect width="513" height="341.967" fill="white"/>
</clipPath>
</defs>
</svg>
