<svg width="513" height="342" viewBox="0 0 513 342" fill="none" xmlns="http://www.w3.org/2000/svg">
<g clip-path="url(#clip0_974_6990)">
<path d="M0 0H513V341.967H0V0Z" fill="#496E2D"/>
<path d="M0 110.916V231.15H513V110.916H0Z" fill="black"/>
<path d="M0 110.916H513V150.994H0V110.916Z" fill="#FFDA44"/>
<path d="M0 191.072H513V231.15H0V191.072Z" fill="white"/>
<path d="M196.383 0H316.617V341.967H196.383V0Z" fill="black"/>
<path d="M196.383 0H236.461V341.967H196.383V0Z" fill="#FFDA44"/>
<path d="M275.237 0H315.315V341.967H275.237V0Z" fill="white"/>
<path d="M256.5 294.374C324.619 294.374 379.841 239.152 379.841 171.033C379.841 102.914 324.619 47.6929 256.5 47.6929C188.381 47.6929 133.16 102.914 133.16 171.033C133.16 239.152 188.381 294.374 256.5 294.374Z" fill="#D80027"/>
<path d="M256.5 58.7144L261.109 72.9421H276.138L264.015 81.8595L268.624 96.0872L256.5 87.27L244.376 96.0872L248.985 81.8595L236.862 72.9421H251.891L256.5 58.7144ZM190.471 80.1562L202.695 88.9733L214.819 80.1562L210.21 94.4841L222.333 103.301H207.304L202.695 117.529L197.986 103.301H182.957L195.08 94.4841L190.471 80.1562ZM149.692 136.266H164.721L169.33 122.038L174.039 136.266H189.069L176.845 145.083L181.554 159.411L169.33 150.593L157.207 159.411L161.816 145.083L149.692 136.266ZM149.692 205.701L161.816 196.884L157.207 182.556L169.33 191.373L181.554 182.556L176.845 196.884L189.069 205.701H174.039L169.33 220.029L164.721 205.701H149.692ZM190.471 261.91L195.08 247.583L182.957 238.765H197.986L202.695 224.437L207.304 238.765H222.333L210.21 247.583L214.819 261.91L202.695 252.993L190.471 261.91ZM256.5 283.352L251.891 269.024H236.862L248.985 260.207L244.376 245.879L256.5 254.696L268.624 245.879L264.015 260.207L276.138 269.024H261.109L256.5 283.352ZM322.529 261.91L310.305 252.993L298.181 261.91L302.79 247.583L290.667 238.765H305.696L310.305 224.437L315.014 238.765H330.043L317.92 247.583L322.529 261.91ZM363.308 205.701H348.279L343.67 220.029L338.961 205.701H323.932L336.155 196.884L331.446 182.556L343.67 191.373L355.794 182.556L351.185 196.884L363.308 205.701ZM363.308 136.266L351.185 145.083L355.794 159.411L343.67 150.593L331.446 159.411L336.155 145.083L323.932 136.266H338.961L343.67 122.038L348.279 136.266H363.308ZM322.529 80.1562L317.92 94.4841L330.043 103.301H315.014L310.305 117.529L305.696 103.301H290.667L302.79 94.4841L298.181 80.1562L310.305 88.9733L322.529 80.1562Z" fill="#496E2D"/>
<path d="M279.845 169.029C268.824 147.888 265.317 143.88 265.317 143.88C265.317 143.88 265.718 134.161 265.718 128.25C265.718 119.433 258.303 112.419 249.186 112.419C240.569 112.419 233.455 115.325 232.653 123.44C228.445 124.342 224.037 127.548 224.037 134.161C224.037 138.971 225.039 141.476 229.247 143.479C231.351 138.871 233.555 138.67 238.565 137.067C239.367 137.668 240.268 140.073 241.17 140.474L241.471 141.476C241.471 141.476 228.145 148.088 228.145 172.436C228.145 201.994 250.188 217.925 250.188 217.925L248.384 218.225L246.48 225.339H268.523V218.125L279.545 235.659C279.845 235.359 289.765 187.966 279.845 169.029Z" fill="#496E2D"/>
</g>
<defs>
<clipPath id="clip0_974_6990">
<rect width="513" height="341.967" fill="white"/>
</clipPath>
</defs>
</svg>
