<svg width="513" height="342" viewBox="0 0 513 342" fill="none" xmlns="http://www.w3.org/2000/svg">
<g clip-path="url(#clip0_974_6886)">
<path d="M0 0H513V341.967H0V0Z" fill="#0052B4"/>
<path d="M256.5 0V30.6598L211.212 55.8088H256.5V115.225H197.285L256.5 148.089V171.033H229.748L156.104 130.054V171.033H100.396V122.338L12.7248 171.033H0V140.374L45.2883 115.225H0V55.8088H59.2154L0 22.8445V0H26.7521L100.396 40.8797V0H156.104V48.6949L243.775 0H256.5Z" fill="white"/>
<path d="M144.281 0H112.219V69.4354H0V101.498H112.219V171.033H144.281V101.498H256.5V69.4354H144.281V0Z" fill="#D80027"/>
<path d="M156.104 115.225L256.5 171.033V155.203L184.56 115.225H156.104Z" fill="#0052B4"/>
<path d="M156.104 115.225L256.5 171.033V155.203L184.56 115.225H156.104Z" fill="white"/>
<path d="M156.104 115.225L256.5 171.033V155.203L184.56 115.225H156.104ZM71.9402 115.225L0 155.203V171.033L100.396 115.225H71.9402Z" fill="#D80027"/>
<path d="M100.396 55.7086L0 0V15.7307L71.9402 55.7086H100.396Z" fill="#0052B4"/>
<path d="M100.396 55.7086L0 0V15.7307L71.9402 55.7086H100.396Z" fill="white"/>
<path d="M100.396 55.7086L0 0V15.7307L71.9402 55.7086H100.396ZM184.56 55.7086L256.5 15.7307V0L156.104 55.7086H184.56Z" fill="#D80027"/>
<path d="M312.81 194.579V104.404C312.81 95.887 319.323 89.0737 327.839 89.0737H448.574C456.891 89.0737 463.604 95.887 463.604 104.404V194.579C463.604 269.926 388.257 300.085 388.257 300.085C388.257 300.085 312.81 269.926 312.81 194.579Z" fill="#1F8BDE"/>
<path d="M312.81 194.579V104.404C312.81 95.887 319.323 89.0737 327.839 89.0737H448.574C456.891 89.0737 463.604 95.887 463.604 104.404V194.579C463.604 269.926 388.257 300.085 388.257 300.085C388.257 300.085 312.81 269.926 312.81 194.579ZM392.565 281.048C400.481 276.539 408.496 271.028 415.811 264.315C436.351 245.779 448.474 222.834 448.474 194.479V104.303C448.474 104.003 327.839 104.003 327.839 104.003V194.479C327.839 222.834 339.963 245.779 360.503 264.315C368.819 271.83 378.137 278.242 388.157 283.352C389.559 282.751 390.962 281.95 392.565 281.048Z" fill="white"/>
<path d="M347.778 193.778C345.173 185.862 349.481 179.45 357.898 179.45H418.516C426.732 179.45 431.341 185.762 428.635 193.778L423.125 210.31C420.52 218.225 414.207 219.528 407.294 214.318C407.294 214.318 409.899 209.508 388.157 209.508C366.414 209.508 369.019 214.318 369.019 214.318C362.907 220.029 355.894 218.325 353.188 210.31C353.289 210.41 347.778 193.778 347.778 193.778Z" fill="#187536"/>
<path d="M358.098 179.45C366.214 181.053 375.933 164.421 388.257 164.421C401.382 164.421 410.099 181.554 418.416 179.45C425.83 177.646 433.445 157.207 433.445 149.291C433.445 132.659 413.205 119.132 388.257 119.132C363.308 119.132 343.069 132.659 343.069 149.291C342.969 157.808 349.682 177.847 358.098 179.45ZM356.695 271.229C362.907 271.63 369.22 269.425 373.929 264.716L382.946 255.699C385.852 252.793 390.461 252.793 393.367 255.699L402.384 264.716C407.094 269.425 413.406 271.63 419.518 271.229C424.828 270.928 452.081 237.663 445.268 238.565C440.659 239.166 436.15 241.371 432.543 244.877L432.443 244.978L423.425 253.995C420.52 256.901 415.911 256.901 413.005 253.995L403.987 244.978C395.27 236.16 381.043 236.16 372.226 244.877L372.125 244.978L363.108 253.995C360.202 256.901 355.593 256.901 352.687 253.995L343.67 244.978C340.163 241.471 335.855 239.367 331.346 238.665C324.633 237.563 351.485 270.928 356.695 271.229ZM322.729 210.41C325.635 207.505 330.244 207.505 333.149 210.41L342.167 219.428C350.984 228.145 365.112 228.145 373.929 219.428L382.946 210.41C385.852 207.505 390.461 207.505 393.367 210.41L402.384 219.428C411.202 228.145 425.329 228.145 434.146 219.428L443.164 210.41C446.069 207.505 450.678 207.505 453.584 210.41C453.584 210.41 459.095 195.581 456.089 194.479C448.174 191.574 438.855 193.277 432.543 199.689L432.443 199.79L423.425 208.807C420.52 211.713 415.911 211.713 413.005 208.807L403.987 199.79C395.27 190.972 381.043 190.972 372.226 199.689L372.125 199.79L363.108 208.807C360.202 211.713 355.593 211.713 352.687 208.807L343.67 199.79C337.458 193.577 328.54 191.774 320.825 194.279C317.719 195.381 322.729 210.41 322.729 210.41Z" fill="white"/>
</g>
<defs>
<clipPath id="clip0_974_6886">
<rect width="513" height="341.967" fill="white"/>
</clipPath>
</defs>
</svg>
