<svg width="513" height="342" viewBox="0 0 513 342" fill="none" xmlns="http://www.w3.org/2000/svg">
<g clip-path="url(#clip0_974_6882)">
<path d="M0 0H513V341.967H0V0Z" fill="#338AF3"/>
<path d="M256.5 37.9741L266.62 69.2351H299.584L272.932 88.5728L283.152 119.834L256.5 100.496L229.848 119.834L240.068 88.5728L213.416 69.2351H246.38L256.5 37.9741ZM123.441 171.033L154.702 160.814V127.95L174.039 154.601L205.3 144.382L185.963 171.033L205.3 197.585L174.039 187.466L154.702 214.017V181.153L123.441 171.033ZM256.5 304.093L246.38 272.832H213.416L240.068 253.494L229.848 222.133L256.5 241.471L283.152 222.133L272.932 253.494L299.584 272.832H266.62L256.5 304.093ZM389.559 171.033L358.298 181.153V214.017L338.961 187.466L307.7 197.585L327.038 171.033L307.7 144.382L338.961 154.601L358.298 127.95V160.814L389.559 171.033Z" fill="white"/>
</g>
<defs>
<clipPath id="clip0_974_6882">
<rect width="513" height="341.967" fill="white"/>
</clipPath>
</defs>
</svg>
