<svg width="513" height="342" viewBox="0 0 513 342" fill="none" xmlns="http://www.w3.org/2000/svg">
<g clip-path="url(#clip0_974_6595)">
<path d="M0 0.0039978H513V341.997H0V0.0039978Z" fill="#6DA544"/>
<path d="M216.286 171.006L0 315.192V26.8083L216.286 171.006ZM513 26.8083V315.192L296.714 171.006L513 26.8083Z" fill="black"/>
<path d="M513 26.8083L296.714 171.006L513 315.192V342.002H472.797L256.5 197.805L40.2034 342.002H0V315.192L216.286 171.006L0 26.8083V-0.0019989H40.2034L256.5 144.196L472.797 -0.0019989H513V26.8083Z" fill="#0052B4"/>
<path d="M513 26.8083L296.714 171.006L513 315.192V342.002H472.797L256.5 197.805L40.2034 342.002H0V315.192L216.286 171.006L0 26.8083V-0.0019989H40.2034L256.5 144.196L472.797 -0.0019989H513V26.8083Z" fill="#FFDA44"/>
</g>
<defs>
<clipPath id="clip0_974_6595">
<rect width="513" height="342" fill="white"/>
</clipPath>
</defs>
</svg>
