<svg width="513" height="342" viewBox="0 0 513 342" fill="none" xmlns="http://www.w3.org/2000/svg">
<g clip-path="url(#clip0_974_6575)">
<path d="M0 -0.00195312H513V342.002H0V-0.00195312Z" fill="white"/>
<path d="M0 -0.00195312H513V90.754H0V-0.00195312Z" fill="black"/>
<path d="M0 251.246H513V341.991H0V251.246Z" fill="#496E2D"/>
<path d="M0 113.494H513V228.517H0V113.494Z" fill="#A2001D"/>
<path d="M323.896 54.5764L298.263 42.7444L256.5 137.311L214.737 42.7444L189.104 54.5764L240.954 170.994L189.104 287.413L214.737 299.244L256.5 204.679L298.263 299.244L323.896 287.413L272.046 170.994L323.896 54.5764Z" fill="white"/>
<path d="M273.91 65.7262C263.987 54.8891 256.5 48.6599 256.5 48.6599C256.5 48.6599 249.013 54.8881 239.09 65.7252V276.263C249.013 287.1 256.5 293.33 256.5 293.33C256.5 293.33 263.987 287.102 273.91 276.264V65.7262Z" fill="white"/>
<path d="M209.448 106.1V235.888C219.934 254.466 232.768 269.696 242.384 279.791V62.1963C232.767 72.292 219.933 87.5206 209.448 106.1ZM303.552 106.1C293.066 87.5206 280.232 72.292 270.615 62.1963V279.792C280.233 269.696 293.066 254.467 303.552 235.889V106.1Z" fill="#A2001D"/>
<path d="M303.552 106.1V235.888C314.166 217.077 322.372 194.835 322.372 170.994C322.372 147.154 314.166 124.912 303.552 106.1ZM209.448 106.1V235.888C198.834 217.077 190.628 194.835 190.628 170.994C190.628 147.154 198.834 124.912 209.448 106.1Z" fill="black"/>
</g>
<defs>
<clipPath id="clip0_974_6575">
<rect width="513" height="342" fill="white"/>
</clipPath>
</defs>
</svg>
