<svg width="513" height="343" viewBox="0 0 513 343" fill="none" xmlns="http://www.w3.org/2000/svg">
<g clip-path="url(#clip0_974_6567)">
<path d="M0 0H514.002V342.668H0V0Z" fill="#D80027"/>
<path d="M256.5 342.067C350.959 342.067 427.533 265.493 427.533 171.033C427.533 76.5743 350.959 0 256.5 0C162.041 0 85.4666 76.5743 85.4666 171.033C85.4666 265.493 162.041 342.067 256.5 342.067Z" fill="#D80027"/>
<path d="M383.147 171.033L331.446 195.381L359 245.479L302.79 234.758L295.676 291.468L256.5 249.687L217.324 291.468L210.21 234.758L154 245.479L181.554 195.381L129.853 171.033L181.554 146.686L154 96.4882L210.21 107.309L217.324 50.4985L256.5 92.28L295.676 50.4985L302.79 107.309L359 96.4882L331.446 146.686L383.147 171.033Z" fill="#FFDA44"/>
<path d="M257.903 242.773C297.524 242.773 329.643 210.654 329.643 171.033C329.643 131.412 297.524 99.2935 257.903 99.2935C218.282 99.2935 186.163 131.412 186.163 171.033C186.163 210.654 218.282 242.773 257.903 242.773Z" fill="#D80027"/>
<path d="M214.618 171.034C212.514 171.034 210.51 171.134 208.406 171.334C208.506 183.358 212.815 194.279 220.029 202.896C223.836 192.576 229.547 183.257 236.762 175.142C229.848 172.436 222.434 171.034 214.618 171.034ZM241.27 217.624C246.48 219.528 252.091 220.53 257.903 220.53C263.714 220.53 269.325 219.528 274.535 217.624C271.73 206.503 265.818 196.583 257.903 188.768C249.987 196.583 244.076 206.503 241.27 217.624ZM300.786 146.285C292.27 131.456 276.238 121.537 257.903 121.537C239.567 121.537 223.636 131.456 215.019 146.285C230.65 146.386 245.278 150.594 257.903 157.908C270.527 150.594 285.156 146.285 300.786 146.285ZM279.044 175.142C286.258 183.157 291.969 192.576 295.777 202.896C302.991 194.379 307.299 183.358 307.399 171.334C305.395 171.134 303.291 171.034 301.187 171.034C293.472 171.034 285.957 172.436 279.044 175.142Z" fill="#FFDA44"/>
</g>
<defs>
<clipPath id="clip0_974_6567">
<rect width="513" height="342.668" fill="white"/>
</clipPath>
</defs>
</svg>
