<svg width="513" height="342" viewBox="0 0 513 342" fill="none" xmlns="http://www.w3.org/2000/svg">
<g clip-path="url(#clip0_974_6545)">
<path d="M0 0.00390625H513V341.997H0V0.00390625Z" fill="#0052B4"/>
<path d="M0 0.00390625H513V85.5076H0V0.00390625Z" fill="#FFDA44"/>
<path d="M0 85.4966H513V171H0V85.4966Z" fill="white"/>
<path d="M0 171H513V256.504H0V171Z" fill="#D80027"/>
<path d="M256.5 171.006L0 342.002V-0.00195312L256.5 171.006Z" fill="#6DA544"/>
<path d="M68.7721 171C68.7721 146.087 86.2822 125.273 109.664 120.167C106.001 119.364 102.262 118.958 98.512 118.957C69.768 118.957 46.4686 142.257 46.4686 171C46.4686 199.743 69.769 223.044 98.512 223.044C102.341 223.044 106.07 222.618 109.664 221.833C86.2812 216.727 68.7721 195.914 68.7721 171Z" fill="white"/>
<path d="M109.09 126.391L111.857 134.911H120.815L113.568 140.177L116.336 148.696L109.09 143.431L101.842 148.696L104.611 140.177L97.3628 134.911H106.32L109.09 126.391ZM109.09 148.696L111.857 157.215H120.815L113.568 162.481L116.336 171L109.09 165.735L101.842 171L104.611 162.481L97.3628 157.215H106.32L109.09 148.696ZM109.09 171L111.857 179.52H120.815L113.568 184.785L116.336 193.305L109.09 188.04L101.842 193.305L104.611 184.785L97.3628 179.52H106.32L109.09 171ZM109.09 193.305L111.857 201.823H120.815L113.568 207.09L116.336 215.609L109.09 210.344L101.842 215.609L104.611 207.09L97.3628 201.823H106.32L109.09 193.305Z" fill="white"/>
</g>
<defs>
<clipPath id="clip0_974_6545">
<rect width="513" height="342" fill="white"/>
</clipPath>
</defs>
</svg>
