<svg width="513" height="342" viewBox="0 0 513 342" fill="none" xmlns="http://www.w3.org/2000/svg">
<g clip-path="url(#clip0_974_6520)">
<path d="M0 0H513V342H0V0Z" fill="white"/>
<path fill-rule="evenodd" clip-rule="evenodd" d="M78.3219 103.593L125.749 32.4529L138.229 40.7734L90.8026 111.914L78.3219 103.593ZM96.107 115.45L143.534 44.3096L156.014 52.6301L108.588 123.77L96.107 115.45ZM113.892 127.307L161.319 56.1663L173.8 64.4868L126.373 135.627L113.892 127.307ZM339.17 277.491L386.597 206.351L399.077 214.672L351.651 285.812L339.17 277.491ZM356.955 289.348L404.382 218.208L416.862 226.528L369.436 297.669L356.955 289.348ZM434.648 238.385L387.221 309.525L374.74 301.205L422.167 230.065L434.648 238.385Z" fill="black"/>
<path fill-rule="evenodd" clip-rule="evenodd" d="M413.084 282.9L353.8 243.377L360.734 232.977L420.017 272.499L413.084 282.9Z" fill="white"/>
<path d="M327.625 218.416C353.818 179.126 343.201 126.042 303.912 99.8487C264.622 73.6556 211.537 84.2726 185.344 123.562C159.151 162.852 169.768 215.936 209.058 242.129C248.348 268.322 301.432 257.706 327.625 218.416Z" fill="#CA163A"/>
<path d="M185.344 123.562C172.255 143.197 177.566 169.756 197.201 182.846C216.836 195.936 243.395 190.624 256.485 170.989C269.574 151.354 296.134 146.042 315.768 159.132C335.403 172.222 340.715 198.781 327.625 218.416C301.445 257.685 248.327 268.309 209.058 242.129C169.788 215.95 159.165 162.832 185.344 123.562Z" fill="#0E4896"/>
<path fill-rule="evenodd" clip-rule="evenodd" d="M387.22 32.4531L434.647 103.594L422.167 111.914L374.74 40.7736L387.22 32.4531ZM369.435 44.3102L416.863 115.45L404.382 123.771L356.955 52.6308L369.435 44.3102ZM351.65 56.1668L399.077 127.307L386.596 135.627L339.169 64.4873L351.65 56.1668ZM126.372 206.352L173.799 277.492L161.318 285.813L113.891 214.672L126.372 206.352ZM108.587 218.209L156.014 289.349L143.533 297.669L96.106 226.529L108.587 218.209ZM90.8027 230.065L138.23 301.206L125.749 309.526L78.322 238.386L90.8027 230.065Z" fill="black"/>
<path d="M117.192 263.851L134.977 251.995L117.192 263.851ZM357.266 103.802L378.039 89.9529L357.266 103.802ZM395.825 78.0963L413.61 66.2397L395.825 78.0963Z" fill="black"/>
<path fill-rule="evenodd" clip-rule="evenodd" d="M417.077 71.4402L399.291 83.2968L392.358 72.8961L410.143 61.0396L417.077 71.4402ZM381.506 95.1533L360.733 109.002L353.799 98.6014L374.573 84.7527L381.506 95.1533ZM138.444 257.196L120.659 269.052L113.725 258.651L131.51 246.795L138.444 257.196Z" fill="white"/>
</g>
<defs>
<clipPath id="clip0_974_6520">
<rect width="513" height="342" fill="white"/>
</clipPath>
</defs>
</svg>
