<svg width="513" height="342" viewBox="0 0 513 342" fill="none" xmlns="http://www.w3.org/2000/svg">
<g clip-path="url(#clip0_974_6497)">
<path d="M0 0H513V342H0V0Z" fill="#36B6CC"/>
<path d="M256.5 239.3C294.276 239.3 324.9 208.676 324.9 170.9C324.9 133.124 294.276 102.5 256.5 102.5C218.724 102.5 188.1 133.124 188.1 170.9C188.1 208.676 218.724 239.3 256.5 239.3Z" fill="#FFD400"/>
<path d="M256.5 251.5L228.6 293.2L221.5 243.5L178.3 269L193.5 221.2L143.5 225.4L177.9 188.9L131 170.9L177.8 152.9L143.4 116.4L193.4 120.6L178.2 72.8L221.4 98.2L228.5 48.5L256.4 90.2L284.3 48.5L291.4 98.2L334.6 72.8L319.4 120.6L369.4 116.4L335.1 153L381.9 170.9L335.1 188.9L369.5 225.4L319.5 221.2L334.7 269L291.5 243.6L284.4 293.3C284.4 293.2 256.5 251.5 256.5 251.5ZM256.5 250.7C300.6 250.7 336.4 214.9 336.4 170.8C336.4 126.7 300.6 91 256.5 91C212.4 91 176.6 126.8 176.6 170.9C176.6 215 212.4 250.7 256.5 250.7ZM22.8 28.3C22.8 25.1 25.2 22.6 28.5 22.6H39.8C43 22.6 45.5 25 45.5 28.3V39.6C45.6 42.7 43.1 45.3 39.9 45.3H28.5C25.4 45.3 22.8 42.8 22.8 39.7V28.3ZM22.8 74C22.8 70.8 25.2 68.3 28.5 68.3H39.8C43 68.3 45.5 70.7 45.5 74V85.3C45.6 88.4 43.1 91 39.9 91H28.5C25.4 91 22.8 88.5 22.8 85.4V74ZM22.8 119.6C22.8 116.4 25.2 113.9 28.5 113.9H39.8C43 113.9 45.5 116.3 45.5 119.6V130.9C45.6 134 43.1 136.6 39.9 136.6H28.5C25.4 136.6 22.8 134.1 22.8 131V119.6ZM22.8 165.2C22.8 162 25.2 159.5 28.5 159.5H39.8C43 159.5 45.5 161.9 45.5 165.2V176.5C45.6 179.6 43.1 182.2 39.9 182.2H28.5C25.4 182.2 22.8 179.7 22.8 176.6V165.2ZM22.8 210.9C22.8 207.7 25.2 205.2 28.5 205.2H39.8C43 205.2 45.5 207.6 45.5 210.9V222.2C45.6 225.3 43.1 227.9 39.9 227.9H28.5C25.4 227.9 22.8 225.4 22.8 222.3V210.9ZM22.8 256.5C22.8 253.3 25.2 250.8 28.5 250.8H39.8C43 250.8 45.5 253.2 45.5 256.5V267.8C45.6 270.9 43.1 273.5 39.9 273.5H28.5C25.4 273.5 22.8 271 22.8 267.9V256.5ZM22.8 302.1C22.8 298.9 25.2 296.4 28.5 296.4H39.8C43 296.4 45.5 298.8 45.5 302.1V313.4C45.6 316.5 43.1 319.1 39.9 319.1H28.5C25.4 319.1 22.8 316.6 22.8 313.5V302.1ZM45.6 279.3C45.6 276.1 48 273.6 51.3 273.6H62.6C65.8 273.6 68.3 276 68.3 279.3V290.6C68.4 293.7 65.9 296.3 62.7 296.3H51.3C48.2 296.3 45.6 293.8 45.6 290.7V279.3ZM45.6 233.7C45.6 230.5 48 228 51.3 228H62.6C65.8 228 68.3 230.4 68.3 233.7V245C68.4 248.1 65.9 250.7 62.7 250.7H51.3C48.2 250.7 45.6 248.2 45.6 245.1V233.7ZM45.6 188C45.6 184.8 48 182.3 51.3 182.3H62.6C65.8 182.3 68.3 184.7 68.3 188V199.3C68.4 202.4 65.9 205 62.7 205H51.3C48.2 205 45.6 202.5 45.6 199.4V188ZM45.6 142.4C45.6 139.2 48 136.7 51.3 136.7H62.6C65.8 136.7 68.3 139.1 68.3 142.4V153.7C68.4 156.8 65.9 159.4 62.7 159.4H51.3C48.2 159.4 45.6 156.9 45.6 153.8V142.4ZM45.6 96.8C45.6 93.6 48 91.1 51.3 91.1H62.6C65.8 91.1 68.3 93.5 68.3 96.8V108.1C68.4 111.2 65.9 113.8 62.7 113.8H51.3C48.2 113.8 45.6 111.3 45.6 108.2V96.8ZM45.6 51.2C45.6 48 48 45.5 51.3 45.5H62.6C65.8 45.5 68.3 47.9 68.3 51.2V62.5C68.4 65.6 65.9 68.2 62.7 68.2H51.3C48.2 68.2 45.6 65.7 45.6 62.6V51.2Z" fill="#FFD400"/>
</g>
<defs>
<clipPath id="clip0_974_6497">
<rect width="513" height="342" fill="white"/>
</clipPath>
</defs>
</svg>
