<svg width="513" height="342" viewBox="0 0 513 342" fill="none" xmlns="http://www.w3.org/2000/svg">
<g clip-path="url(#clip0_974_6477)">
<path d="M0 0H513V342H0V0Z" fill="#D80027"/>
<path d="M0 0H513V171H0V0Z" fill="#0052B4"/>
<path d="M149.3 98.1001C149.3 84.1001 138 72.8001 124 72.8001C117.5 72.8001 111.6 75.2001 107.1 79.2001V64.4001H115.5V47.5001H107.1V39.1001H90.3V47.5001H81.9V64.4001H90.3V79.3001C85.8 75.3001 79.9 72.9001 73.4 72.9001C59.4 72.9001 48.1 84.2001 48.1 98.2001C48.1 105.7 51.4 112.4 56.5 117V131.9H140.8V117C146.1 112.3 149.3 105.5 149.3 98.1001Z" fill="#FFDA44"/>
</g>
<defs>
<clipPath id="clip0_974_6477">
<rect width="513" height="342" fill="white"/>
</clipPath>
</defs>
</svg>
