<svg width="513" height="342" viewBox="0 0 513 342" fill="none" xmlns="http://www.w3.org/2000/svg">
<g clip-path="url(#clip0_974_6468)">
<path d="M0 0H513V342H0V0Z" fill="#FFDA44"/>
<path d="M222.6 22.3H489.7V319.1H222.6V22.3Z" fill="#A2001D"/>
<path d="M22.3 22.3H222.6V319.1H22.3V22.3Z" fill="#D80027"/>
<path d="M200.3 0H222.6V342H200.3V0Z" fill="#FFDA44"/>
<path d="M22.3 22.3H111.3V319.1H22.3V22.3Z" fill="#6DA544"/>
<path d="M111.3 22.3H200.3V319.1H111.3V22.3Z" fill="#FF9811"/>
<path d="M368.2 156.8C366.8 154.8 368.2 118.9 368.2 118.9C369.1 111.5 368.3 110.5 369.2 107.5C370.1 104.6 374.6 95.8999 374.6 95.8999C374.6 95.8999 368.6 93.5999 364.3 95.2999C360 96.9999 339.6 87.7999 333.1 98.6999C328.7 105.7 309.5 114.9 308.5 112.7C307.5 110.5 302.6 107.7 301.6 109.8C300.6 111.9 300.9 123.7 301.6 125.8C302.4 128.4 311.4 127.8 313.9 128.9C317.6 130.7 326.1 137.1 325.8 139.6C325.5 142.1 303.3 133.6 301.6 135.1C300.2 136.3 299.7 148.3 301.2 150.1C303 152.2 324.6 155.7 326.2 157.6C327.8 159.5 313.1 165 313.9 182.6C314.6 197.3 321.9 200 321.9 200C321.9 200 319.5 203.6 314.1 203.1C307.9 202.5 286.7 185.4 286.7 185.4C286.7 185.4 283.2 76.3999 290.3 63.9999C295.2 55.4999 267.6 74.0999 267.6 114.8V151C267.6 157.6 266.2 173.4 270.2 185C270.2 185 269.8 231.9 271.7 234.6C273.6 237.3 284.4 236.8 286.5 234.6C288.6 232.4 286.5 204.6 286.5 204.6C294.2 204.8 304.8 222.1 319 221C339.6 219.4 347.7 211.1 353.3 216C361.4 223.1 358.8 239.2 353.7 247.5C351.5 251 339.4 252.2 338 255.1C336.6 258 338.5 260.5 338.5 260.5H368.2C368.2 260.5 369.6 240 370.9 234.4C372.2 228.7 370.3 223.7 376.8 224C400.3 225.1 416.6 208.7 422.3 216C425.5 220.1 427.9 245.9 425.6 249.3C423.4 252.7 411.8 252.1 410.4 256C409 260 411.2 260.4 411.2 260.4H440.9C440.9 260.4 440.5 239.2 443.4 232.7C446.3 226.2 448.3 222.3 452.7 215.5C457.1 208.7 464 199.8 464 179.3C464 165.1 455.9 156.5 455.9 156.5H417C402.9 156.7 369.6 158.8 368.2 156.8ZM232.2 32.2999C242.9 21.6999 252.4 29.5999 254.4 34.3999C256.3 39.1999 256.5 42.5999 257.2 47.9999C258.1 54.8999 262.1 61.9999 262.1 61.9999C262.1 61.9999 255 58.1999 247.4 57.7999C242.7 57.4999 238.4 57.1999 233.8 55.2999C228.1 52.9999 222.1 42.3999 232.2 32.2999ZM480.6 32.1999C491.3 42.7999 483.4 52.3999 478.6 54.3999C473.8 56.3999 470.4 56.4999 465 57.1999C458.1 58.0999 451 62.1999 451 62.1999C451 62.1999 454.7 55.0999 455.2 47.4999C455.5 42.7999 455.8 38.3999 457.6 33.8999C459.8 28.1999 470.4 22.0999 480.6 32.1999ZM480.7 309.1C470 319.7 460.5 311.7 458.5 306.9C456.6 302.1 456.4 298.7 455.8 293.3C455 286.4 450.9 279.2 450.9 279.2C450.9 279.2 457.9 283 465.6 283.5C470.3 283.8 474.6 284.1 479.2 286C484.9 288.4 490.9 299.1 480.7 309.1ZM232.5 309C221.9 298.3 229.8 288.8 234.6 286.8C239.4 284.9 242.8 284.7 248.2 284C255.1 283.1 262.2 279.1 262.2 279.1C262.2 279.1 258.4 286.2 258 293.8C257.7 298.5 257.4 302.8 255.5 307.4C253.2 313.1 242.6 319.2 232.5 309Z" fill="#FFDA44"/>
<path fill-rule="evenodd" clip-rule="evenodd" d="M389.039 110.36C386.893 112.204 385.3 115.181 385.3 120.2C385.3 124.511 387.926 128.393 393.17 130.814C398.457 133.255 406.245 134.067 415.617 131.879C425.758 129.502 436.208 130.257 444.135 132.779C448.09 134.037 451.587 135.79 454.117 137.969C456.623 140.127 458.533 143.041 458.293 146.504C457.804 153.824 455.495 158.478 453.048 161.356C451.839 162.778 450.637 163.718 449.692 164.317C449.221 164.616 448.814 164.829 448.503 164.976C448.347 165.049 448.215 165.106 448.111 165.148C448.058 165.169 448.013 165.187 447.975 165.201C447.956 165.208 447.938 165.215 447.923 165.22L447.901 165.228L447.892 165.231L447.887 165.233C447.885 165.234 447.883 165.235 446.9 162.4C445.917 159.566 445.915 159.566 445.913 159.567L445.909 159.569L445.901 159.571L445.888 159.576L445.868 159.583C445.859 159.587 445.855 159.588 445.858 159.587C445.864 159.585 445.894 159.572 445.945 159.548C446.048 159.5 446.234 159.405 446.48 159.249C446.969 158.939 447.698 158.385 448.477 157.469C450.005 155.672 451.895 152.278 452.307 146.101L452.307 146.091C452.366 145.256 451.951 144.022 450.202 142.515C448.476 141.029 445.785 139.6 442.315 138.496C435.393 136.294 426.043 135.598 416.985 137.721L416.982 137.722C406.655 140.133 397.443 139.395 390.655 136.261C383.824 133.107 379.3 127.39 379.3 120.2C379.3 113.769 381.42 108.996 385.129 105.809C388.734 102.712 393.46 101.443 398.099 101.132C407.312 100.514 417.591 103.579 422.61 106.252L422.622 106.259L422.622 106.259C424.672 107.362 427.237 109.095 429.896 110.89C430.407 111.235 430.922 111.583 431.436 111.928C434.731 114.14 438.189 116.388 441.485 118.045C444.866 119.744 447.637 120.589 449.645 120.474C450.571 120.421 451.256 120.168 451.804 119.754C452.362 119.331 452.978 118.587 453.498 117.227L459.102 119.373C458.272 121.538 457.063 123.297 455.426 124.537C453.777 125.785 451.897 126.355 449.989 126.464C446.332 126.674 442.371 125.206 438.79 123.405C435.123 121.562 431.388 119.122 428.092 116.91C427.532 116.533 426.987 116.166 426.46 115.81C423.79 114.009 421.542 112.492 419.784 111.545C415.6 109.319 406.434 106.586 398.501 107.118C394.565 107.382 391.291 108.426 389.039 110.36Z" fill="#FFDA44"/>
</g>
<defs>
<clipPath id="clip0_974_6468">
<rect width="513" height="342" fill="white"/>
</clipPath>
</defs>
</svg>
