<svg width="513" height="342" viewBox="0 0 513 342" fill="none" xmlns="http://www.w3.org/2000/svg">
<g clip-path="url(#clip0_974_6438)">
<path d="M0 0.00390625H513V341.997H0V0.00390625Z" fill="black"/>
<path d="M0 0.00390625H513V114.001H0V0.00390625Z" fill="#D80027"/>
<path d="M0 228H513V341.997H0V228Z" fill="#496E2D"/>
<path d="M281.974 150.987L290.953 163.361L305.495 158.646L296.502 171.009L305.48 183.382L290.943 178.649L281.95 191.013L281.96 175.726L267.421 170.991L281.964 166.276L281.974 150.987Z" fill="white"/>
<path d="M257.467 201.929C240.386 201.929 226.539 188.081 226.539 171C226.539 153.92 240.387 140.072 257.467 140.072C262.604 140.065 267.662 141.343 272.18 143.789C265.315 137.078 255.93 132.935 245.572 132.935C224.549 132.935 207.505 149.978 207.505 171.001C207.505 192.024 224.549 209.067 245.572 209.067C255.93 209.067 265.316 204.924 272.18 198.213C267.662 200.659 262.604 201.937 257.467 201.929Z" fill="white"/>
</g>
<defs>
<clipPath id="clip0_974_6438">
<rect width="513" height="342" fill="white"/>
</clipPath>
</defs>
</svg>
