<svg width="513" height="342" viewBox="0 0 513 342" fill="none" xmlns="http://www.w3.org/2000/svg">
<g clip-path="url(#clip0_974_6382)">
<path d="M0 0H513V342H0V0Z" fill="#095FAD"/>
<path d="M342 0H513V342H342V0ZM0 0H171V342H0V0Z" fill="#BE1229"/>
<path d="M108.3 166.3H123.1V240.5H108.3V166.3ZM48.9 166.3H63.7V240.5H48.9V166.3Z" fill="#FFDA44"/>
<path d="M86.0001 218.2C94.1739 218.2 100.8 211.574 100.8 203.4C100.8 195.226 94.1739 188.6 86.0001 188.6C77.8263 188.6 71.2001 195.226 71.2001 203.4C71.2001 211.574 77.8263 218.2 86.0001 218.2Z" fill="#FFDA44"/>
<path d="M71.2001 225.7H100.9V240.5H71.2001V225.7ZM71.2001 166.3H100.9V181.1H71.2001V166.3Z" fill="#FFDA44"/>
<path d="M86.0001 158.8C94.1739 158.8 100.8 152.174 100.8 144C100.8 135.826 94.1739 129.2 86.0001 129.2C77.8263 129.2 71.2001 135.826 71.2001 144C71.2001 152.174 77.8263 158.8 86.0001 158.8Z" fill="#FFDA44"/>
<path d="M76.3 123.9H95.8L86 108.3L76.3 123.9Z" fill="#FFDA44"/>
</g>
<defs>
<clipPath id="clip0_974_6382">
<rect width="513" height="342" fill="white"/>
</clipPath>
</defs>
</svg>
