<svg width="513" height="342" viewBox="0 0 513 342" fill="none" xmlns="http://www.w3.org/2000/svg">
<g clip-path="url(#clip0_974_6247)">
<path d="M0 0.00402832H513V341.997H0V0.00402832Z" fill="white"/>
<path d="M0 341.997V0.00402832L280.967 175.095H87.7811L271.716 341.997H0Z" fill="#0052B4"/>
<path d="M245.247 164.876L10.219 18.4129V331.778H245.247L61.3126 164.876H245.247Z" fill="#D80027"/>
<path d="M98.1944 239.567L83.5769 232.691L91.362 218.533L75.4871 221.569L73.4752 205.533L62.4186 217.328L51.3611 205.533L49.3491 221.569L33.4752 218.532L41.2604 232.691L26.6409 239.567L41.2604 246.442L33.4752 260.6L49.3501 257.565L51.3611 273.6L62.4186 261.805L73.4752 273.6L75.4871 257.565L91.361 260.601L83.5769 246.443L98.1944 239.567ZM88.4403 106.537L77.8076 101.536L83.4696 91.2379L71.9241 93.4472L70.4603 81.7834L62.4186 90.3612L54.3769 81.7834L52.9141 93.4472L41.3666 91.2379L47.0296 101.536L36.3959 106.537L62.4186 111.741L88.4403 106.537Z" fill="white"/>
<path d="M93.6444 106.537C93.6444 123.782 79.6641 137.763 62.4185 137.763C45.1729 137.763 31.1926 123.782 31.1926 106.537" fill="white"/>
</g>
<defs>
<clipPath id="clip0_974_6247">
<rect width="513" height="342" fill="white"/>
</clipPath>
</defs>
</svg>
