<svg width="513" height="342" viewBox="0 0 513 342" fill="none" xmlns="http://www.w3.org/2000/svg">
<g clip-path="url(#clip0_974_6196)">
<path d="M0 0H513V342H0V0Z" fill="#D80027"/>
<path d="M138 0H515V114H138V0Z" fill="white"/>
<path d="M138 230H515V344H138V230Z" fill="#4A7C3A"/>
<path fill-rule="evenodd" clip-rule="evenodd" d="M36.3445 38.2589C36.344 38.2583 36.3437 38.2579 40.2998 35.2002C44.2559 32.1425 44.2558 32.1424 44.2559 32.1426L44.3571 32.2732C44.4258 32.3617 44.5289 32.4944 44.6644 32.6683C44.9354 33.0163 45.3363 33.5295 45.8523 34.1863C46.8844 35.4999 48.3765 37.3868 50.2105 39.6726C53.8809 44.247 58.9103 50.4055 64.3578 56.7578C69.815 63.1214 75.6442 69.6237 80.9212 74.9099C86.3856 80.3838 90.7094 83.9807 93.2431 85.1828C99.9032 88.3427 103.837 89.6197 105.95 90.1247C106.998 90.3752 107.54 90.4217 107.703 90.4298C107.738 90.4315 107.752 90.4314 107.748 90.4314C107.744 90.4314 107.708 90.4316 107.645 90.4365C107.588 90.4408 107.509 90.4488 107.41 90.4638C107.361 90.4713 107.306 90.4805 107.247 90.4919C107.217 90.4976 107.186 90.5039 107.154 90.5107L107.105 90.5214L107.08 90.5271L107.067 90.5301C107.061 90.5316 107.055 90.5331 108.2 95.4002C109.345 100.267 109.339 100.269 109.332 100.27L109.319 100.273L109.293 100.279L109.24 100.291C109.205 100.298 109.169 100.306 109.132 100.313C109.059 100.327 108.984 100.34 108.906 100.351C108.751 100.375 108.585 100.394 108.409 100.407C108.058 100.434 107.66 100.44 107.206 100.417C106.303 100.372 105.139 100.213 103.625 99.8507C100.613 99.1307 95.9964 97.5576 88.9565 94.2175C84.6402 92.1696 79.189 87.3291 73.844 81.9748C68.3116 76.4329 62.2971 69.7164 56.7668 63.2675C51.2268 56.8074 46.1249 50.5596 42.4109 45.9309C40.5528 43.6151 39.0394 41.7012 37.9891 40.3645C37.4639 39.696 37.0543 39.1717 36.7752 38.8133C36.6356 38.6341 36.5287 38.4964 36.4561 38.403L36.3445 38.2589Z" fill="white"/>
<path fill-rule="evenodd" clip-rule="evenodd" d="M34.5999 95.4002L35.0378 100.381L31.2136 91.7215L54.4852 70.3002H51.6999V60.3002H65.349L65.6999 59.9773V35.2002H75.6999V50.7724L96.6136 31.5215L103.872 38.3641L99.9999 35.2002C103.872 38.3641 103.872 38.3637 103.872 38.3641L103.447 38.8822C103.171 39.2188 102.766 39.7124 102.247 40.3425C101.21 41.6027 99.7181 43.4096 97.8984 45.5991C94.6031 49.5643 90.2279 54.7899 85.5247 60.3002H89.5999V70.3002H76.8808C73.9315 73.6621 71.0219 76.9191 68.3241 79.8475C63.569 85.0088 59.1161 89.5473 56.2457 91.6403C50.9131 95.5286 45.7152 97.6992 41.8276 98.9019C39.8807 99.5042 38.2497 99.8677 37.0756 100.083C36.488 100.191 36.013 100.263 35.6681 100.309C35.4956 100.332 35.3554 100.348 35.2496 100.36C35.1968 100.366 35.1525 100.37 35.1171 100.374L35.0707 100.378L35.0525 100.38L35.0411 100.381C35.0394 100.381 35.0378 100.381 34.5999 95.4002Z" fill="white"/>
</g>
<defs>
<clipPath id="clip0_974_6196">
<rect width="513" height="342" fill="white"/>
</clipPath>
</defs>
</svg>
