<svg width="513" height="342" viewBox="0 0 513 342" fill="none" xmlns="http://www.w3.org/2000/svg">
<g clip-path="url(#clip0_974_6190)">
<path d="M0 0.00402832H513V341.997H0V0.00402832Z" fill="white"/>
<path d="M256.5 171V341.997H0V171H256.5Z" fill="#0052B4"/>
<path d="M513 0.00402832V171H256.5V0.00402832H513Z" fill="#D80027"/>
<path d="M128.25 37.7747L140.097 74.2347H178.435L147.419 96.7697L159.265 133.23L128.25 110.696L97.2345 133.23L109.081 96.7697L78.0652 74.2347H116.403L128.25 37.7747Z" fill="#0052B4"/>
<path d="M384.75 208.771L396.597 245.231H434.935L403.919 267.766L415.765 304.226L384.75 281.692L353.735 304.226L365.581 267.766L334.565 245.231H372.903L384.75 208.771Z" fill="#D80027"/>
</g>
<defs>
<clipPath id="clip0_974_6190">
<rect width="513" height="342" fill="white"/>
</clipPath>
</defs>
</svg>
