<svg width="513" height="342" viewBox="0 0 513 342" fill="none" xmlns="http://www.w3.org/2000/svg">
<g clip-path="url(#clip0_974_6172)">
<path d="M0 0H513V342.004H0V0Z" fill="black"/>
<path d="M0 -0.00292969H513V341.996" fill="#A2001D"/>
<path d="M205.031 241.626L207.798 250.147H216.756L209.509 255.412L212.278 263.93L205.031 258.666L197.783 263.93L200.551 255.412L193.304 250.147H202.261L205.031 241.626ZM182.152 159.844L186.766 174.044H201.696L189.617 182.818L194.231 197.018L182.152 188.242L170.073 197.018L174.688 182.818L162.609 174.044H177.539L182.152 159.844ZM182.152 263.93L186.765 278.131H201.696L189.616 286.905L194.231 301.106L182.152 292.33L170.073 301.106L174.686 286.905L162.609 278.131H177.537L182.152 263.93ZM225.803 197.018L230.418 211.218H245.348L233.269 219.993L237.883 234.192L225.803 225.416L213.726 234.192L218.34 219.993L206.261 211.218H221.191L225.803 197.018ZM138.5 197.018L143.115 211.218H158.043L145.965 219.993L150.577 234.192L138.5 225.416L126.421 234.192L131.035 219.993L118.957 211.218H133.886L138.5 197.018Z" fill="white"/>
<path d="M377.261 119.062C369.619 111.419 359.689 106.905 349.017 106.129L380.96 81.2854C368.237 68.5626 351.188 62.8184 334.55 64.0337C332.497 56.6401 328.563 49.9048 323.132 44.4846L310.514 69.7198C309.668 68.1751 308.606 66.7591 307.36 65.5146C300.101 58.2555 288.332 58.2565 281.075 65.5146C273.818 72.7728 273.816 84.5417 281.075 91.7999C282.32 93.0453 283.736 94.1073 285.28 94.954L260.045 107.572C265.467 113.006 272.205 116.941 279.602 118.993C278.383 135.631 284.122 152.678 296.845 165.4L324.753 129.519C326.834 127.458 329.646 126.304 332.575 126.311C335.554 126.311 338.355 127.471 340.461 129.578C341.5 130.611 342.323 131.839 342.884 133.193C343.445 134.546 343.731 135.998 343.727 137.463C343.727 140.443 342.567 143.242 340.461 145.348L350.975 155.863C355.89 150.948 358.597 144.412 358.597 137.463C358.597 131.777 356.783 126.37 353.434 121.899C358.471 123.238 363.065 125.887 366.748 129.576C378.344 141.17 378.344 160.038 366.748 171.632L377.262 182.147C385.688 173.722 390.327 162.519 390.327 150.604C390.326 138.689 385.686 127.487 377.261 119.062Z" fill="#FFDA44"/>
</g>
<defs>
<clipPath id="clip0_974_6172">
<rect width="513" height="342" fill="white"/>
</clipPath>
</defs>
</svg>
