<svg width="513" height="342" viewBox="0 0 513 342" fill="none" xmlns="http://www.w3.org/2000/svg">
<g clip-path="url(#clip0_974_6087)">
<path d="M0 -0.00195312H513V342.002H0V-0.00195312Z" fill="#0052B4"/>
<path d="M0 -0.00195312H513V113.995H0V-0.00195312Z" fill="#D80027"/>
<path d="M0 227.993H513V341.991H0V227.993Z" fill="white"/>
<path d="M129.721 96.6484V181.951C129.721 230.474 193.112 245.341 193.112 245.341C193.112 245.341 256.5 230.472 256.5 181.951V96.6484H129.721Z" fill="#D80027"/>
<path d="M155.938 111.518H230.284V81.7794L215.414 89.2139L193.11 66.9104L170.807 89.2139L155.938 81.7794V111.518ZM241.631 193.827L193.306 145.502L144.981 193.827L160.752 209.598L193.306 177.044L225.859 209.598L241.631 193.827Z" fill="#FFDA44"/>
<path d="M241.631 148.691H219.083C220.397 146.434 221.089 143.87 221.088 141.258C221.088 133.046 214.43 126.389 206.219 126.389C200.545 126.389 195.617 129.568 193.111 134.241C190.604 129.569 185.675 126.389 180.002 126.389C171.791 126.389 165.133 133.046 165.133 141.258C165.133 143.97 165.87 146.504 167.138 148.691H144.981C144.981 156.903 152.134 163.56 160.345 163.56H159.85C159.85 171.772 166.507 178.429 174.719 178.429C174.719 185.7 179.94 191.741 186.836 193.033L175.119 219.486C180.894 221.835 187.07 223.041 193.304 223.037C199.538 223.041 205.714 221.835 211.488 219.486L199.772 193.033C206.668 191.741 211.889 185.7 211.889 178.429C220.101 178.429 226.758 171.772 226.758 163.56H226.263C234.478 163.56 241.631 156.903 241.631 148.691Z" fill="white"/>
</g>
<defs>
<clipPath id="clip0_974_6087">
<rect width="513" height="342" fill="white"/>
</clipPath>
</defs>
</svg>
