<svg width="513" height="342" viewBox="0 0 513 342" fill="none" xmlns="http://www.w3.org/2000/svg">
<g clip-path="url(#clip0_974_6071)">
<path d="M0 0H513V342H0V0Z" fill="#055E1C"/>
<path d="M183.906 204.452C183.906 216.771 193.656 226.756 205.685 226.756H271.02C271.02 237.02 279.146 245.343 289.17 245.343H310.948C320.972 245.343 329.098 237.021 329.098 226.756V204.452H183.906ZM330.909 96.6465V148.69C330.909 156.889 324.396 163.559 316.39 163.559V185.863C336.405 185.863 352.686 169.188 352.686 148.69V96.6465H330.909ZM174.832 148.691C174.832 156.89 168.319 163.56 160.312 163.56V185.864C180.328 185.864 196.609 169.189 196.609 148.691V96.6475H174.831V148.691H174.832Z" fill="white"/>
<path d="M298.242 96.6436H320.021V148.687H298.242V96.6436ZM265.575 126.387C265.575 128.437 263.947 130.104 261.945 130.104C259.943 130.104 258.315 128.437 258.315 126.387V96.6466H236.536V126.387C236.536 128.437 234.908 130.104 232.906 130.104C230.904 130.104 229.276 128.437 229.276 126.387V96.6466H207.498V126.387C207.498 140.735 218.896 152.408 232.905 152.408C238.301 152.408 243.305 150.672 247.424 147.722C251.542 150.672 256.548 152.408 261.944 152.408C263.03 152.408 264.098 152.33 265.15 152.193C263.607 158.705 257.881 163.56 251.054 163.56V185.864C271.069 185.864 287.351 169.189 287.351 148.691V96.6466H265.573L265.575 126.387Z" fill="white"/>
<path d="M207.498 163.556H240.162V185.861H207.498V163.556Z" fill="white"/>
</g>
<defs>
<clipPath id="clip0_974_6071">
<rect width="513" height="342" fill="white"/>
</clipPath>
</defs>
</svg>
