<svg width="513" height="342" viewBox="0 0 513 342" fill="none" xmlns="http://www.w3.org/2000/svg">
<g clip-path="url(#clip0_974_6045)">
<path d="M0 0.0039978H513V341.997H0V0.0039978Z" fill="white"/>
<path d="M0 0.0039978H513V171H0V0.0039978Z" fill="#D80027"/>
<path d="M83.6411 85.4997C83.6411 60.5861 101.151 39.7735 124.533 34.6666C120.87 33.8634 117.131 33.4576 113.381 33.4562C84.6371 33.4562 61.3376 56.7556 61.3376 85.4987C61.3376 114.242 84.6381 137.542 113.381 137.542C117.211 137.542 120.939 137.116 124.533 136.332C101.151 131.227 83.6411 110.414 83.6411 85.4997ZM150.555 37.1745L154.246 48.5336H166.19L156.526 55.5543L160.217 66.9134L150.555 59.8937L140.891 66.9134L144.583 55.5543L134.919 48.5336H146.863L150.555 37.1745Z" fill="white"/>
<path d="M121.581 59.4789L125.271 70.8381H137.216L127.552 77.8587L131.243 89.2179L121.581 82.1982L111.917 89.2179L115.609 77.8587L105.946 70.8381H117.89L121.581 59.4789ZM179.528 59.4789L183.219 70.8381H195.163L185.5 77.8587L189.191 89.2179L179.528 82.1982L169.865 89.2179L173.557 77.8587L163.894 70.8381H175.838L179.528 59.4789ZM168.375 92.9352L172.066 104.294H184.011L174.348 111.315L178.039 122.674L168.375 115.654L158.713 122.674L162.405 111.315L152.742 104.294H164.685L168.375 92.9352ZM132.733 92.9352L136.423 104.294H148.367L138.704 111.315L142.396 122.674L132.733 115.654L123.07 122.674L126.761 111.315L117.098 104.294H129.042L132.733 92.9352Z" fill="white"/>
</g>
<defs>
<clipPath id="clip0_974_6045">
<rect width="513" height="342" fill="white"/>
</clipPath>
</defs>
</svg>
