<svg width="513" height="342" viewBox="0 0 513 342" fill="none" xmlns="http://www.w3.org/2000/svg">
<g clip-path="url(#clip0_974_6022)">
<path d="M0 0.0039978H513V341.997H0V0.0039978Z" fill="white"/>
<path d="M0 114.001H513V227.998H0V114.001Z" fill="#0052B4"/>
<path d="M0 227.999H513V341.997H0V227.999Z" fill="#D80027"/>
<path d="M234.062 111.523V126.389C234.062 160.537 189.453 170.998 189.453 170.998C189.453 170.998 144.844 160.538 144.844 126.389V111.523L144.699 67.2491L233.916 66.9825L234.062 111.523Z" fill="white"/>
<path d="M234.062 111.523V126.389C234.062 160.537 189.453 170.998 189.453 170.998C189.453 170.998 144.844 160.538 144.844 126.389V111.523L144.699 67.2491L233.916 66.9825L234.062 111.523Z" fill="#0052B4"/>
<path d="M234.062 111.523V126.389C234.062 160.537 189.453 170.998 189.453 170.998C189.453 170.998 144.844 160.538 144.844 126.389V111.523L159.721 126.389L189.453 104.085L219.196 126.389L234.062 111.523Z" fill="white"/>
</g>
<defs>
<clipPath id="clip0_974_6022">
<rect width="513" height="342" fill="white"/>
</clipPath>
</defs>
</svg>
