<svg width="513" height="342" viewBox="0 0 513 342" fill="none" xmlns="http://www.w3.org/2000/svg">
<g clip-path="url(#clip0_974_6010)">
<path d="M0 0.00402832H513V341.997H0V0.00402832Z" fill="white"/>
<path d="M0 111.525H513V230.474H0V111.525Z" fill="#0052B4"/>
<path d="M0 230.475H513V341.997H0V230.475Z" fill="#D80027"/>
<path d="M129.721 96.6544V181.957C129.721 230.48 193.112 245.347 193.112 245.347C193.112 245.347 256.5 230.478 256.5 181.957V96.6544H129.721Z" fill="white"/>
<path d="M146.411 99.1543V181.255C146.411 186.738 147.629 191.916 150.041 196.771H236.179C238.592 191.917 239.809 186.739 239.809 181.255V99.1543H146.411Z" fill="#D80027"/>
<path d="M221.733 156.399H200.266V142.088H214.578V127.777H200.266V113.465H185.955V127.777H171.646V142.088H185.955V156.399H164.488V170.711H185.955V185.022H200.266V170.711H221.733V156.399Z" fill="white"/>
<path d="M169.562 216.747C178.784 222.542 188.259 225.908 193.11 227.404C197.962 225.907 207.436 222.543 216.658 216.747C225.958 210.903 232.479 204.217 236.18 196.77C231.958 193.776 226.91 192.171 221.734 192.178C219.774 192.178 217.871 192.41 216.041 192.836C212.163 184.023 203.358 177.867 193.112 177.867C182.865 177.867 174.062 184.023 170.184 192.836C168.317 192.4 166.407 192.179 164.491 192.178C159.315 192.172 154.266 193.776 150.044 196.77C153.743 204.217 160.262 210.903 169.562 216.747Z" fill="#0052B4"/>
</g>
<defs>
<clipPath id="clip0_974_6010">
<rect width="513" height="342" fill="white"/>
</clipPath>
</defs>
</svg>
