<svg width="513" height="342" viewBox="0 0 513 342" fill="none" xmlns="http://www.w3.org/2000/svg">
<g clip-path="url(#clip0_974_5998)">
<path d="M0 0.00708008H513V342H0V0.00708008Z" fill="#338AF3"/>
<path d="M513 0.000976562V167.017L0 171.176V0.000976562H513Z" fill="white"/>
<path d="M324.376 117.996L256.5 185.872L188.624 117.996C179.542 131.457 174.699 147.33 174.718 163.568V185.872C174.718 221.686 197.86 252.195 229.973 263.236C225.688 271.638 226.41 282.121 232.691 289.959L256.996 270.482L281.301 289.959C287.656 282.029 288.326 271.389 283.87 262.939C315.546 251.656 338.284 221.373 338.284 185.872V163.568C338.302 147.33 333.458 131.458 324.376 117.996Z" fill="#6DA544"/>
<path d="M256.5 245.351C223.704 245.351 197.022 218.669 197.022 185.873V163.569C197.022 130.772 223.704 104.09 256.5 104.09C289.296 104.09 315.978 130.772 315.978 163.568V185.872C315.978 218.669 289.296 245.351 256.5 245.351Z" fill="#FFDA44"/>
<path d="M293.674 185.872V163.568C293.674 143.07 276.998 126.394 256.5 126.394C236.002 126.394 219.327 143.07 219.327 163.568V185.872L256.5 193.308L293.674 185.872Z" fill="#338AF3"/>
<path d="M219.327 185.872C219.327 206.37 236.002 223.046 256.5 223.046C276.998 223.046 293.674 206.37 293.674 185.872H219.327Z" fill="#6DA544"/>
<path d="M301.109 104.09C301.109 91.7709 291.124 81.7854 278.804 81.7854C273.316 81.7782 268.02 83.8026 263.936 87.4685V74.3499H271.371V59.4809H263.936V52.0454H249.067V59.4809H241.631V74.3499H249.067V87.4685C244.982 83.8027 239.685 81.7783 234.197 81.7854C221.878 81.7854 211.892 91.7709 211.892 104.09C211.892 110.694 214.765 116.626 219.328 120.711V133.83H293.675V120.711C298.236 116.626 301.109 110.695 301.109 104.09Z" fill="#FFDA44"/>
</g>
<defs>
<clipPath id="clip0_974_5998">
<rect width="513" height="342" fill="white"/>
</clipPath>
</defs>
</svg>
