<svg width="513" height="342" viewBox="0 0 513 342" fill="none" xmlns="http://www.w3.org/2000/svg">
<g clip-path="url(#clip0_974_5964)">
<path d="M0 0.00390625H513V341.997H0V0.00390625Z" fill="white"/>
<path d="M0 0.00390625H513V114.001H0V0.00390625ZM0 227.999H513V341.997H0V227.999Z" fill="#0052B4"/>
<path d="M229.028 176.948L256.5 129.366L283.971 176.948H229.028Z" fill="#FFDA44"/>
<path d="M292.186 192.659L256.5 210.502L220.814 192.659V168.868H292.186V192.659Z" fill="#6DA544"/>
<path d="M290.145 131.408L277.528 144.025C282.909 149.407 286.238 156.841 286.238 165.054C286.238 181.478 272.923 194.792 256.5 194.792C240.076 194.792 226.762 181.477 226.762 165.054C226.762 156.843 230.091 149.407 235.472 144.025L222.856 131.408C214.245 140.019 208.918 151.914 208.918 165.053C208.918 191.332 230.221 212.635 256.5 212.635C282.779 212.635 304.082 191.332 304.082 165.053C304.082 151.913 298.756 140.017 290.145 131.408Z" fill="#FFDA44"/>
</g>
<defs>
<clipPath id="clip0_974_5964">
<rect width="513" height="342" fill="white"/>
</clipPath>
</defs>
</svg>
