<svg width="513" height="342" viewBox="0 0 513 342" fill="none" xmlns="http://www.w3.org/2000/svg">
<g clip-path="url(#clip0_974_5954)">
<path d="M0 0.00390625H513V341.997H0V0.00390625Z" fill="#0052B4"/>
<path d="M513 -0.00195312V167.014L0 171.174V-0.00195312H513Z" fill="#D80027"/>
<path d="M256.5 171.006L0 342.002V-0.00195312L256.5 171.006Z" fill="white"/>
<path d="M59.7373 171C59.6142 172.524 59.5497 174.051 59.5439 175.579C59.5439 208.464 86.2029 235.124 119.089 235.124C151.975 235.124 178.634 208.465 178.634 175.579C178.634 174.037 178.556 172.512 178.441 171H59.7373Z" fill="#FFDA44"/>
<path d="M119.094 143.52C129.213 143.52 137.416 135.317 137.416 125.198C137.416 115.079 129.213 106.876 119.094 106.876C108.975 106.876 100.772 115.079 100.772 125.198C100.772 135.317 108.975 143.52 119.094 143.52Z" fill="#FFDA44"/>
<path d="M77.8667 120.616V180.161C77.8667 211.717 119.091 221.385 119.091 221.385C119.091 221.385 160.315 211.717 160.315 180.161V120.616H77.8667Z" fill="#D80027"/>
<path d="M119.109 202.209C111.462 199.458 96.1885 192.423 96.1885 180.16V138.936H141.993V180.16C141.992 192.464 126.719 199.481 119.109 202.209Z" fill="#338AF3"/>
<path d="M128.251 161.839V152.679L119.089 148.099L109.929 152.679V161.839L105.349 166.42V184.741H132.831V166.42L128.251 161.839Z" fill="#F3F3F3"/>
</g>
<defs>
<clipPath id="clip0_974_5954">
<rect width="513" height="342" fill="white"/>
</clipPath>
</defs>
</svg>
