<svg width="513" height="342" viewBox="0 0 513 342" fill="none" xmlns="http://www.w3.org/2000/svg">
<g clip-path="url(#clip0_974_5892)">
<path d="M0 0H478.8V342H0V0Z" fill="white"/>
<path d="M0 0H513V342H0V0Z" fill="#073AB6"/>
<path d="M0 0H257.64V171H0V0Z" fill="white"/>
<path d="M161.879 0H243.959V159.6H161.879V0Z" fill="#F44653"/>
<path d="M0 0H82.08V159.6H0V0Z" fill="#1035BB"/>
<path d="M82.0796 0H164.16V159.6H82.0796V0ZM330.6 136.8H444.6L433.2 159.6H399V171H421.8L410.4 193.8H399V228H376.2V159.6H342L330.6 136.8ZM421.8 193.8L444.6 228H399L421.8 193.8ZM353.4 193.8L376.2 228H330.6L353.4 193.8ZM387.6 262.2L364.8 228H410.4L387.6 262.2ZM456 182.4C449.16 182.4 444.6 177.84 444.6 171C444.6 164.16 449.16 159.6 456 159.6C462.84 159.6 467.4 164.16 467.4 171C467.4 177.84 462.84 182.4 456 182.4ZM319.2 182.4C312.36 182.4 307.8 177.84 307.8 171C307.8 164.16 312.36 159.6 319.2 159.6C326.04 159.6 330.6 164.16 330.6 171C330.6 177.84 326.04 182.4 319.2 182.4ZM342 273.6C335.16 273.6 330.6 269.04 330.6 262.2C330.6 255.36 335.16 250.8 342 250.8C348.84 250.8 353.4 255.36 353.4 262.2C353.4 269.04 348.84 273.6 342 273.6ZM433.2 273.6C426.36 273.6 421.8 269.04 421.8 262.2C421.8 255.36 426.36 250.8 433.2 250.8C440.04 250.8 444.6 255.36 444.6 262.2C444.6 269.04 440.04 273.6 433.2 273.6ZM387.6 296.4C380.76 296.4 376.2 291.84 376.2 285C376.2 278.16 380.76 273.6 387.6 273.6C394.44 273.6 399 278.16 399 285C399 291.84 394.44 296.4 387.6 296.4Z" fill="white"/>
</g>
<defs>
<clipPath id="clip0_974_5892">
<rect width="513" height="342" fill="white"/>
</clipPath>
</defs>
</svg>
