<svg width="513" height="342" viewBox="0 0 513 342" fill="none" xmlns="http://www.w3.org/2000/svg">
<g clip-path="url(#clip0_974_5875)">
<path d="M0 0.00390625H513V341.997H0V0.00390625Z" fill="white"/>
<path d="M0 0.00390625H513V114.001H0V0.00390625Z" fill="#D80027"/>
<path d="M0 228H513V341.997H0V228Z" fill="#6DA544"/>
<path d="M226.76 215.609H286.24V190.33L274.344 196.279L256.5 178.436L238.656 196.279L226.76 190.33V215.609ZM192.731 185.869L195.499 194.39H204.457L197.209 199.655L199.978 208.174L192.731 202.909L185.483 208.174L188.251 199.655L181.004 194.39H189.961L192.731 185.869ZM201.313 156.131L204.082 164.65H213.039L205.792 169.915L208.561 178.436L201.313 173.17L194.065 178.436L196.834 169.915L189.587 164.65H198.544L201.313 156.131ZM225.849 133.827L228.618 142.345H237.575L230.328 147.611L233.096 156.131L225.849 150.865L218.601 156.131L221.37 147.611L214.122 142.345H223.08L225.849 133.827ZM320.269 185.869L317.501 194.39H308.544L315.791 199.655L313.022 208.174L320.269 202.909L327.518 208.174L324.749 199.655L331.996 194.39H323.039L320.269 185.869ZM311.687 156.131L308.918 164.65H299.961L307.208 169.915L304.44 178.436L311.687 173.17L318.935 178.436L316.166 169.915L323.413 164.65H314.456L311.687 156.131ZM287.151 133.827L284.382 142.345H275.425L282.672 147.611L279.904 156.131L287.151 150.865L294.399 156.131L291.631 147.611L298.878 142.345H289.92L287.151 133.827ZM256.5 122.673L259.268 131.193H268.227L260.979 136.459L263.747 144.978L256.5 139.713L249.253 144.978L252.021 136.459L244.773 131.193H253.732L256.5 122.673Z" fill="#FFDA44"/>
</g>
<defs>
<clipPath id="clip0_974_5875">
<rect width="513" height="342" fill="white"/>
</clipPath>
</defs>
</svg>
