<svg width="513" height="342" viewBox="0 0 513 342" fill="none" xmlns="http://www.w3.org/2000/svg">
<g clip-path="url(#clip0_974_5846)">
<path d="M0 0.00390625H513V341.997H0V0.00390625Z" fill="#496E2D"/>
<path d="M357.906 98.5383C366.319 75.0886 356.868 49.5849 336.583 36.8821C340.302 37.3635 343.958 38.2439 347.488 39.5082C374.543 49.2151 388.607 79.0132 378.9 106.069C369.193 133.125 339.395 147.187 312.339 137.48C308.81 136.212 305.428 134.568 302.25 132.576C325.983 135.666 349.492 121.989 357.906 98.5383ZM311.244 30.4556L303.933 39.901L292.691 35.8671L299.416 45.7384L292.105 55.1838L303.571 51.8393L310.296 61.7105L310.658 49.7732L322.124 46.4277L310.881 42.3948L311.244 30.4556Z" fill="white"/>
<path d="M330.983 61.2347L323.673 70.6801L312.43 66.6462L319.155 76.5175L311.845 85.9629L323.31 82.6174L330.035 92.4896L330.396 80.5514L341.863 77.2048L330.621 73.173L330.983 61.2347ZM276.439 41.6646L269.129 51.11L257.888 47.0781L264.612 56.9483L257.302 66.3927L268.767 63.0482L275.492 72.9195L275.854 60.9812L287.32 57.6377L276.077 53.6028L276.439 41.6646ZM275.638 76.9223L268.328 86.3677L257.085 82.3338L263.81 92.2051L256.5 101.65L267.966 98.306L274.69 108.177L275.053 96.2389L286.519 92.8944L275.277 88.8606L275.638 76.9223ZM309.188 88.9587L301.877 98.4042L290.636 94.3703L297.361 104.243L290.049 113.687L301.516 110.342L308.241 120.214L308.602 108.275L320.067 104.931L308.826 100.898L309.188 88.9587Z" fill="white"/>
<path d="M83.6411 0.00390625H172.858V341.997H83.6411V0.00390625Z" fill="#D80027"/>
<path d="M117.688 90.0335L102.75 78.9068V63.1711L117.688 52.0444H138.813L153.75 63.1711V78.9068L138.813 90.0335H117.688Z" fill="white"/>
<path d="M128.25 52.0444H117.688L102.75 63.1711V70.8641H128.25V52.0444ZM128.25 90.0335H138.813L153.75 78.9068V70.8792H128.25V90.0335Z" fill="#FF9811"/>
<path d="M117.688 289.957L102.75 278.83V263.095L117.688 251.968H138.813L153.75 263.095V278.83L138.813 289.957H117.688Z" fill="white"/>
<path d="M128.25 251.968H117.688L102.75 263.095V270.788H128.25V251.968ZM128.25 289.957H138.813L153.75 278.83V270.803H128.25V289.957Z" fill="#FF9811"/>
<path d="M117.688 189.994L102.751 178.868V163.134L117.688 152.006H138.813L153.75 163.134V178.868L138.813 189.994H117.688ZM154.272 214.476H147.766V207.97H136.333L128.249 199.887L120.166 207.97H108.734V214.476H102.229V227.488H108.734V233.992H120.166L128.25 242.077L136.334 233.992H147.766V227.488H154.272V214.476ZM154.272 114.513H147.766V108.009H136.333L128.249 99.9238L120.166 108.009H108.734V114.513H102.229V127.525H108.734V134.029H120.166L128.25 142.115L136.334 134.029H147.766V127.525H154.272V114.513Z" fill="#496E2D"/>
<path d="M120.812 163.562H135.681V178.431H120.812V163.562Z" fill="#D80027"/>
<path d="M128.25 128.452C132.356 128.452 135.685 125.123 135.685 121.016C135.685 116.91 132.356 113.581 128.25 113.581C124.143 113.581 120.814 116.91 120.814 121.016C120.814 125.123 124.143 128.452 128.25 128.452Z" fill="#D80027"/>
<path d="M128.25 228.42C132.356 228.42 135.685 225.091 135.685 220.985C135.685 216.878 132.356 213.549 128.25 213.549C124.143 213.549 120.814 216.878 120.814 220.985C120.814 225.091 124.143 228.42 128.25 228.42Z" fill="#D80027"/>
</g>
<defs>
<clipPath id="clip0_974_5846">
<rect width="513" height="342" fill="white"/>
</clipPath>
</defs>
</svg>
