<svg width="513" height="342" viewBox="0 0 513 342" fill="none" xmlns="http://www.w3.org/2000/svg">
<g clip-path="url(#clip0_974_5840)">
<path d="M0 -0.00195312H513V342.002H0V-0.00195312Z" fill="#D80027"/>
<path d="M256.5 267.182C309.623 267.182 352.688 224.117 352.688 170.994C352.688 117.871 309.623 74.8069 256.5 74.8069C203.377 74.8069 160.312 117.871 160.312 170.994C160.312 224.117 203.377 267.182 256.5 267.182Z" fill="white"/>
<path d="M268.349 134.22L284.851 156.959L311.576 148.293L295.048 171.013L311.548 193.753L284.832 185.055L268.305 207.775L268.322 179.68L241.606 170.981L268.332 162.316L268.349 134.22Z" fill="#D80027"/>
<path d="M278.36 227.835C246.969 227.835 221.523 202.388 221.523 170.997C221.523 139.606 246.969 114.16 278.36 114.16C288.148 114.16 297.357 116.634 305.398 120.992C292.784 108.658 275.536 101.044 256.5 101.044C217.866 101.044 186.545 132.364 186.545 170.998C186.545 209.633 217.866 240.953 256.5 240.953C275.536 240.953 292.785 233.339 305.398 221.005C297.356 225.36 288.148 227.835 278.36 227.835Z" fill="#D80027"/>
</g>
<defs>
<clipPath id="clip0_974_5840">
<rect width="513" height="342" fill="white"/>
</clipPath>
</defs>
</svg>
