<svg width="513" height="342" viewBox="0 0 513 342" fill="none" xmlns="http://www.w3.org/2000/svg">
<g clip-path="url(#clip0_974_5814)">
<path d="M0 0.0039978H513V341.997H0V0.0039978Z" fill="#D80027"/>
<path d="M0 0.0039978H256.5V171H0V0.0039978Z" fill="#0052B4"/>
<path d="M186.799 85.5027L162.875 96.7556L175.614 119.926L149.637 114.955L146.344 141.198L128.25 121.898L110.155 141.198L106.863 114.955L80.8855 119.925L93.6243 96.7546L69.7007 85.5027L93.6243 74.2497L80.8855 51.0796L106.863 56.0492L110.156 29.8061L128.25 49.1067L146.345 29.8061L149.637 56.0492L175.615 51.0796L162.875 74.2497L186.799 85.5027Z" fill="white"/>
<path d="M128.25 114.57C144.301 114.57 157.313 101.559 157.313 85.5077C157.313 69.4568 144.301 56.445 128.25 56.445C112.199 56.445 99.1875 69.4568 99.1875 85.5077C99.1875 101.559 112.199 114.57 128.25 114.57Z" fill="#0052B4"/>
<path d="M128.25 104.932C117.537 104.932 108.821 96.2146 108.821 85.5027C108.821 74.7898 117.538 66.0738 128.25 66.0738C138.963 66.0738 147.679 74.7908 147.679 85.5027C147.679 96.2146 138.963 104.932 128.25 104.932Z" fill="white"/>
</g>
<defs>
<clipPath id="clip0_974_5814">
<rect width="513" height="342" fill="white"/>
</clipPath>
</defs>
</svg>
