<svg width="513" height="342" viewBox="0 0 513 342" fill="none" xmlns="http://www.w3.org/2000/svg">
<g clip-path="url(#clip0_974_5765)">
<path d="M0 -0.00195312H513V341.991H0V-0.00195312Z" fill="#FFDA44"/>
<path d="M256.5 -0.00195312H513V342.002H256.5V-0.00195312Z" fill="white"/>
<path d="M321.981 148.794L354.116 191.307C349.053 198.973 349.08 209.303 354.935 217.049C362.363 226.875 376.351 228.82 386.178 221.393C396.004 213.964 397.949 199.977 390.52 190.15C384.666 182.404 374.733 179.561 365.977 182.339L315.892 116.081L304.031 125.048L286.237 138.498L304.171 162.221L321.981 148.794ZM368.246 197.669C369.025 197.081 369.912 196.651 370.857 196.405C371.802 196.159 372.786 196.102 373.753 196.236C374.72 196.371 375.652 196.694 376.494 197.189C377.336 197.683 378.072 198.338 378.661 199.117C379.25 199.896 379.679 200.783 379.925 201.728C380.171 202.673 380.229 203.658 380.094 204.625C379.96 205.592 379.636 206.523 379.142 207.365C378.647 208.207 377.992 208.944 377.213 209.532C375.64 210.722 373.659 211.237 371.706 210.966C369.752 210.694 367.987 209.658 366.798 208.085C365.609 206.511 365.093 204.53 365.365 202.577C365.636 200.624 366.673 198.859 368.246 197.669Z" fill="#ACABB1"/>
<path d="M377.102 162.223L395.036 138.5L377.242 125.05L365.381 116.083L315.296 182.341C306.538 179.561 296.608 182.405 290.753 190.152C283.324 199.979 285.269 213.966 295.095 221.395C304.922 228.823 318.91 226.878 326.338 217.051C332.194 209.305 332.221 198.975 327.157 191.309L359.292 148.796L377.102 162.223ZM314.476 208.084C313.287 209.657 311.521 210.693 309.568 210.965C307.615 211.236 305.634 210.721 304.061 209.531C302.487 208.342 301.451 206.577 301.18 204.624C300.908 202.67 301.424 200.689 302.613 199.116C303.202 198.337 303.938 197.682 304.78 197.187C305.622 196.693 306.553 196.37 307.521 196.235C308.488 196.101 309.472 196.158 310.417 196.404C311.362 196.65 312.249 197.079 313.028 197.668C313.807 198.257 314.462 198.994 314.957 199.836C315.451 200.678 315.775 201.609 315.909 202.576C316.044 203.543 315.986 204.527 315.74 205.472C315.494 206.417 315.065 207.305 314.476 208.084Z" fill="#FFDA44"/>
</g>
<defs>
<clipPath id="clip0_974_5765">
<rect width="513" height="342" fill="white"/>
</clipPath>
</defs>
</svg>
