<svg width="513" height="342" viewBox="0 0 513 342" fill="none" xmlns="http://www.w3.org/2000/svg">
<g clip-path="url(#clip0_974_5709)">
<path d="M0 0.00402832H513V341.997H0V0.00402832Z" fill="black"/>
<path d="M513 171V341.997H0L215.605 171H513Z" fill="#6DA544"/>
<path d="M513 0.00402832V171H215.605L0 0.00402832H513Z" fill="#D80027"/>
<path d="M221.433 154.272L26.9205 0.00402832H8.97349L217.548 165.424H513V154.272H221.433ZM8.97349 341.997H26.9205L221.433 187.729H513V176.576H217.548L8.97349 341.997ZM0 7.12091V21.3547L188.685 171L0 320.646V334.879L206.632 171L0 7.12091Z" fill="black"/>
<path d="M8.97349 0.00402832H0V7.12091L206.632 171L0 334.879V341.997H8.97349L217.548 176.576H513V165.424H217.548L8.97349 0.00402832Z" fill="#FFDA44"/>
<path d="M63.8424 207.453V193.131C78.1353 193.131 89.7629 181.502 89.7629 167.211C89.7629 157.099 81.5359 148.872 71.4232 148.872C64.5347 148.872 58.9298 154.476 58.9298 161.366C58.9298 165.771 62.5138 169.355 66.9194 169.355C68.1168 169.354 69.2648 168.877 70.1115 168.03C70.9582 167.184 71.4346 166.036 71.4362 164.838H85.7591C85.7591 175.227 77.3077 183.679 66.9204 183.679C54.6174 183.677 44.6079 173.667 44.6079 161.365C44.6079 146.578 56.6374 134.548 71.4242 134.548C89.4343 134.548 104.087 149.2 104.087 167.211C104.087 189.399 86.0337 207.453 63.8424 207.453Z" fill="#FFDA44"/>
</g>
<defs>
<clipPath id="clip0_974_5709">
<rect width="513" height="342" fill="white"/>
</clipPath>
</defs>
</svg>
