<svg width="513" height="342" viewBox="0 0 513 342" fill="none" xmlns="http://www.w3.org/2000/svg">
<g clip-path="url(#clip0_974_5693)">
<path d="M0 0H513V342.007H0V0Z" fill="#0052B4"/>
<path d="M221.151 42.7132L229.116 58.8547L246.921 61.4397L234.036 74.0042L237.082 91.7388L221.151 83.3624L205.22 91.7388L208.256 74.0042L195.371 61.4397L213.185 58.8547L221.151 42.7132ZM291.849 42.6531L299.814 58.7845L317.629 61.3796L304.744 73.9341L307.78 91.6786L291.849 83.3023L275.918 91.6786L278.964 73.9341L266.079 61.3796L283.883 58.7845L291.849 42.6531ZM354.05 54.0353L362.016 70.1767L379.82 72.7618L366.935 85.3263L369.981 103.061L354.05 94.6945L338.119 103.061L341.165 85.3263L328.27 72.7618L346.084 70.1767L354.05 54.0353ZM417.183 72.371L425.149 88.5125L442.953 91.1075L430.068 103.662L433.114 121.407L417.183 113.03L401.252 121.407L404.288 103.662L391.403 91.1075L409.218 88.5125L417.183 72.371ZM158.95 54.0353L166.915 70.1767L184.73 72.7618L171.835 85.3263L174.881 103.061L158.95 94.6945L143.019 103.061L146.065 85.3263L133.179 72.7618L150.984 70.1767L158.95 54.0353ZM95.8166 72.371L103.782 88.5125L121.597 91.1075L108.712 103.662L111.748 121.407L95.8166 113.03L79.8856 121.407L82.9315 103.662L70.0464 91.1075L87.8511 88.5125L95.8166 72.371Z" fill="white"/>
<path d="M217.955 259.836L190.682 246.2L163.409 191.664H190.682L217.955 164.39L231.592 137.117L258.865 123.481L272.501 137.117L299.775 150.754V164.39L313.411 178.027L354.321 205.3L340.664 246.21L299.754 287.12L286.118 259.847L245.208 287.12V314.393L231.572 300.756L217.955 259.836Z" fill="#FFDA44"/>
</g>
<defs>
<clipPath id="clip0_974_5693">
<rect width="513" height="341.997" fill="white"/>
</clipPath>
</defs>
</svg>
