<svg width="513" height="342" viewBox="0 0 513 342" fill="none" xmlns="http://www.w3.org/2000/svg">
<g clip-path="url(#clip0_974_5667)">
<path d="M0 -0.00195312H513V342.002H0V-0.00195312Z" fill="#496E2D"/>
<path d="M491.626 110.358H443.533C443.533 101.505 436.355 94.3269 427.501 94.3269C418.648 94.3269 411.47 101.505 411.47 110.358H363.376C363.376 119.211 371.088 126.389 379.942 126.389H379.408C379.408 135.243 386.584 142.421 395.439 142.421C395.439 151.274 402.615 158.452 411.47 158.452H443.533C452.386 158.452 459.564 151.274 459.564 142.421C468.417 142.421 475.595 135.243 475.595 126.389H475.061C483.915 126.389 491.626 119.211 491.626 110.358Z" fill="#FF9811"/>
<path d="M342.004 170.994H399.003V341.991H342.004V170.994Z" fill="#D80027"/>
<path d="M456.001 170.994H513V341.991H456.001V170.994Z" fill="#FF9811"/>
<path d="M399.003 170.994H456.002V341.991H399.003V170.994Z" fill="black"/>
</g>
<defs>
<clipPath id="clip0_974_5667">
<rect width="513" height="342" fill="white"/>
</clipPath>
</defs>
</svg>
