<svg width="513" height="342" viewBox="0 0 513 342" fill="none" xmlns="http://www.w3.org/2000/svg">
<g clip-path="url(#clip0_974_5655)">
<path d="M0 0H513V342.004H0V0Z" fill="black"/>
<path d="M0 48.9585H513V97.9219H0V48.9585ZM0 244.812H513V293.776H0V244.812Z" fill="#FFDA44"/>
<path d="M0 0H513V48.9634H0V0Z" fill="#057F44"/>
<path d="M0 97.927H513V146.89H0V97.927ZM0 195.855H513V244.818H0V195.855Z" fill="#D80027"/>
<path d="M0 293.782H513V342.004H0V293.782Z" fill="#057F44"/>
<path d="M277.533 170.996L106.537 341.993H0V0H106.537L277.533 170.996Z" fill="white"/>
<path d="M256.5 170.996L85.5005 341.996H106.528L277.529 170.996L106.528 -0.00292969H85.5005L256.5 170.996Z" fill="black"/>
<path d="M102.665 117.466L115.95 158.358H158.951L124.165 183.633L137.451 224.527L102.665 199.253L67.8773 224.527L81.1652 183.633L46.3794 158.358H89.3782L102.665 117.466Z" fill="#D80027"/>
<path d="M139.211 174.342L104.585 162.075C104.585 162.075 102.027 138.073 101.871 137.261C100.696 131.069 95.2555 126.388 88.7227 126.388C81.3323 126.388 75.3396 132.38 75.3396 139.772C75.3396 140.997 75.518 142.178 75.8266 143.306L66.1187 153.08H83.3813C83.3813 170.997 70.0112 170.997 70.0112 188.841L77.4277 206.685H122.037L129.473 188.841H129.469C130.195 187.175 130.662 185.407 130.853 183.6C137.262 181.006 139.211 174.342 139.211 174.342Z" fill="#FFDA44"/>
</g>
<defs>
<clipPath id="clip0_974_5655">
<rect width="513" height="342" fill="white"/>
</clipPath>
</defs>
</svg>
